<svg xmlns="http://www.w3.org/2000/svg" xmlns:xlink="http://www.w3.org/1999/xlink" viewBox="0 0 246.1 45.15" xmlns:v="https://vecta.io/nano"><style><![CDATA[.B{fill-rule:evenodd}]]></style><path d="M72.44 20.06h-2.95l-.35.81c-.11.27-.17.5-.17.67a.58.58 0 0 0 .28.52c.11.07.38.11.82.15v.23h-2.78v-.23a1.25 1.25 0 0 0 .74-.37c.19-.21.43-.63.72-1.26l2.99-6.66h.12l3.01 6.85c.29.65.52 1.06.71 1.22.14.13.33.2.59.22v.23h-4.04v-.22h.17c.32 0 .55-.04.68-.13.09-.07.13-.16.13-.28 0-.07-.01-.15-.04-.23 0-.04-.07-.19-.19-.46l-.44-1.04h0zm-.21-.46l-1.24-2.88-1.28 2.88h2.52z" class="B"/><path d="M81.28 16.68v4.51c0 .44.04.72.12.83s.25.18.5.21v.22h-2.35v-.77c-.28.33-.55.57-.83.72s-.58.22-.92.22-.62-.1-.87-.3-.42-.43-.51-.7-.13-.73-.13-1.4v-2.28c0-.43-.04-.71-.12-.81-.08-.11-.24-.18-.5-.21v-.23h2.35v3.94c0 .41.02.67.06.79s.1.21.19.27a.53.53 0 0 0 .3.09.7.7 0 0 0 .4-.12c.16-.11.36-.32.59-.64v-3.08c0-.43-.04-.71-.12-.81-.08-.11-.24-.18-.5-.21v-.23h2.34zm4.65-.16l.09 1.96h-.21c-.25-.58-.51-.98-.78-1.19s-.54-.32-.8-.32c-.17 0-.31.06-.43.17s-.18.24-.18.39a.51.51 0 0 0 .12.32c.13.17.5.46 1.1.87s1 .75 1.19 1.04c.19.28.29.6.29.96a1.99 1.99 0 0 1-.24.94c-.16.31-.39.54-.68.71s-.62.25-.97.25c-.28 0-.64-.09-1.1-.26l-.25-.07c-.13 0-.25.1-.34.31h-.21l-.1-2.07h.21c.19.54.44.95.75 1.22.32.27.63.41.92.41.2 0 .36-.06.48-.18.13-.12.19-.27.19-.44 0-.2-.06-.37-.19-.51s-.4-.36-.83-.65c-.63-.43-1.04-.77-1.22-1-.27-.33-.41-.71-.41-1.11a1.81 1.81 0 0 1 .45-1.2c.31-.36.75-.54 1.33-.54a1.98 1.98 0 0 1 .91.23c.11.06.2.09.27.09a.32.32 0 0 0 .18-.04c.04-.03.12-.12.21-.26h.21z"/><use xlink:href="#A"/><path d="M93.16 16.68v1.3c.38-.6.72-.99 1-1.18.29-.2.56-.3.83-.3.23 0 .41.07.55.21s.21.34.21.6c0 .28-.07.49-.2.64s-.29.23-.48.23c-.22 0-.41-.07-.57-.21l-.28-.23c-.04-.02-.09-.04-.14-.04a.52.52 0 0 0-.34.13c-.17.14-.3.34-.38.6a4.25 4.25 0 0 0-.2 1.32v1.67c0 .23.02.38.05.45.05.11.12.19.21.25.1.05.26.08.49.09v.22H90.8v-.22c.25-.02.42-.09.51-.21s.13-.43.13-.93v-3.18c0-.33-.01-.54-.05-.63a.48.48 0 0 0-.18-.25c-.08-.05-.21-.09-.41-.11v-.23h2.35z"/><path d="M98.91 21.59c-.7.62-1.33.93-1.89.93a1.14 1.14 0 0 1-.82-.32c-.22-.22-.32-.49-.32-.81 0-.44.19-.83.57-1.18s1.2-.82 2.47-1.4v-.58c0-.43-.02-.71-.07-.82-.04-.11-.13-.21-.26-.3s-.28-.13-.44-.13c-.27 0-.49.06-.66.18-.11.07-.16.16-.16.26 0 .09.06.19.17.32.16.18.23.35.23.51 0 .2-.08.37-.23.52a.81.81 0 0 1-.58.21c-.26 0-.48-.08-.65-.23-.17-.16-.26-.34-.26-.55 0-.3.12-.58.35-.85s.56-.48.98-.62.86-.21 1.3-.21c.54 0 .97.11 1.29.35.32.23.53.48.62.75.06.17.09.57.09 1.19v2.24c0 .26 0 .43.03.5s.05.11.09.15c.04.03.09.05.14.05.11 0 .21-.08.32-.23l.19.15c-.21.31-.42.53-.64.66s-.47.21-.75.21c-.33 0-.58-.08-.77-.23-.19-.14-.31-.38-.35-.69h0zm0-.45v-1.93c-.5.29-.86.6-1.11.94-.16.22-.24.44-.24.67 0 .19.07.35.21.5.1.11.24.17.43.17.21 0 .44-.12.71-.35h0z" class="B"/><path d="M103.92 14.09v7.16c0 .41.05.67.14.78.1.11.28.18.55.19v.22h-3.11v-.22c.25 0 .44-.08.57-.22.08-.1.12-.34.12-.75v-5.97c0-.4-.05-.66-.14-.77-.1-.11-.28-.18-.55-.2v-.23h2.41z"/><path d="M106.55 13.89c.27 0 .49.1.68.28a.89.89 0 0 1 .28.67.93.93 0 0 1-.28.67c-.19.19-.41.28-.67.28a.89.89 0 0 1-.67-.28c-.19-.19-.28-.41-.28-.67a.89.89 0 0 1 .28-.67.89.89 0 0 1 .67-.28h0zm.86 2.79v4.56c0 .41.05.67.14.78.1.11.28.18.55.19v.22h-3.11v-.22c.25 0 .44-.08.57-.22.08-.1.12-.34.12-.75v-3.36c0-.41-.05-.66-.14-.77-.1-.11-.28-.18-.55-.2v-.23h2.41zm4.06 4.91c-.7.62-1.33.93-1.89.93a1.14 1.14 0 0 1-.82-.32c-.22-.22-.32-.49-.32-.81 0-.44.19-.83.57-1.18s1.2-.82 2.47-1.4v-.58c0-.43-.02-.71-.07-.82-.04-.11-.13-.21-.26-.3s-.28-.13-.44-.13c-.27 0-.49.06-.66.18-.11.07-.16.16-.16.26 0 .09.06.19.17.32.16.18.23.35.23.51 0 .2-.08.37-.23.52a.81.81 0 0 1-.58.21c-.26 0-.48-.08-.65-.23-.17-.16-.26-.34-.26-.55 0-.3.11-.58.35-.85.23-.27.56-.48.98-.62s.86-.21 1.3-.21c.54 0 .98.11 1.29.35.32.23.53.48.62.75.06.17.09.57.09 1.19v2.24c0 .26 0 .43.03.5s.05.11.09.15c.04.03.09.05.14.05.11 0 .21-.08.32-.23l.19.15c-.21.31-.42.53-.64.66a1.43 1.43 0 0 1-.75.21c-.33 0-.58-.08-.77-.23-.19-.14-.3-.38-.34-.69h0zm0-.45v-1.93c-.5.29-.86.6-1.11.94-.16.22-.24.44-.24.67 0 .19.07.35.21.5.1.11.24.17.43.17.2 0 .44-.12.71-.35h0z" class="B"/><use xlink:href="#B"/><path d="M131.65 13.9v2.94h-.23c-.28-.8-.69-1.41-1.24-1.83s-1.15-.63-1.81-.63-1.14.18-1.56.53-.71.84-.88 1.47a7.36 7.36 0 0 0-.26 1.93c0 .8.1 1.5.28 2.11.19.6.49 1.05.91 1.33s.92.43 1.5.43c.2 0 .41-.02.62-.06a4.3 4.3 0 0 0 .65-.19v-1.74c0-.33-.02-.54-.07-.64-.04-.1-.14-.19-.28-.26-.14-.08-.31-.11-.51-.12h-.21v-.23h4.06v.23c-.31.02-.53.06-.64.13-.12.06-.21.17-.28.32-.04.08-.06.27-.06.57v1.74a8.14 8.14 0 0 1-1.67.54 8.69 8.69 0 0 1-1.79.19c-.79 0-1.45-.11-1.98-.32a5.29 5.29 0 0 1-1.39-.85c-.4-.35-.71-.75-.94-1.19-.29-.57-.43-1.2-.43-1.9 0-1.26.44-2.32 1.32-3.18s1.99-1.3 3.33-1.3a5.42 5.42 0 0 1 1.12.1c.18.03.47.13.87.28l.72.23a.51.51 0 0 0 .32-.12c.1-.09.19-.25.27-.48h.21z"/><path d="M135.65 16.51c.5 0 .97.13 1.4.39s.76.63.98 1.1c.22.48.34 1 .34 1.56 0 .82-.21 1.5-.62 2.05-.5.66-1.19 1-2.07 1s-1.53-.31-2-.91-.7-1.31-.7-2.11a3.42 3.42 0 0 1 .72-2.15c.47-.62 1.13-.92 1.96-.92h0zm.02.44c-.21 0-.39.08-.54.24s-.25.47-.3.94c-.04.46-.07 1.11-.07 1.94 0 .44.03.85.09 1.23.04.29.14.51.29.66s.32.23.51.23.34-.05.46-.15c.16-.14.27-.33.32-.58.08-.39.12-1.18.12-2.36 0-.7-.04-1.18-.12-1.43-.08-.26-.19-.45-.34-.57-.11-.09-.25-.13-.43-.13h0z" class="B"/><path d="M141.08 22.61l-1.94-4.47c-.23-.54-.42-.88-.55-1.02-.1-.11-.23-.18-.42-.21v-.23h3.06v.23c-.19 0-.32.03-.4.11-.1.09-.15.2-.15.32 0 .15.09.44.27.86l.95 2.16.75-1.87c.22-.54.32-.91.32-1.13 0-.13-.05-.23-.14-.31s-.25-.13-.49-.13v-.23h1.89v.23a.68.68 0 0 0-.44.21c-.11.11-.29.44-.52.98l-1.92 4.52h-.29z"/><use xlink:href="#C" class="B"/><path d="M151.52 16.68v1.3c.38-.6.72-.99 1-1.18.29-.2.56-.3.83-.3.23 0 .41.07.55.21s.21.34.21.6c0 .28-.07.49-.2.64s-.29.23-.48.23c-.22 0-.41-.07-.57-.21l-.28-.23c-.04-.02-.09-.04-.14-.04a.52.52 0 0 0-.34.13c-.17.14-.3.34-.38.6a4.25 4.25 0 0 0-.2 1.32v1.67c0 .23.02.38.05.45.05.11.12.19.21.25.1.05.26.08.49.09v.22h-3.11v-.22c.25-.02.42-.09.51-.21s.13-.43.13-.93v-3.18c0-.33-.02-.54-.05-.63a.48.48 0 0 0-.18-.25c-.08-.05-.21-.09-.41-.11v-.23h2.35zm5.31 0v.75c.3-.32.58-.55.85-.7a1.76 1.76 0 0 1 .87-.22 1.4 1.4 0 0 1 .93.32c.25.21.41.46.49.77.07.23.1.68.1 1.35v2.24c0 .44.04.72.12.83s.25.18.51.21v.22h-2.91v-.22c.22-.03.37-.12.47-.27.07-.1.1-.36.1-.76v-2.56c0-.47-.02-.77-.06-.89s-.1-.22-.19-.28c-.09-.07-.18-.11-.29-.11-.35 0-.68.25-.98.76v3.09c0 .43.04.7.11.82.08.11.23.19.45.21v.22h-2.91v-.22c.24-.02.42-.1.52-.23.07-.09.11-.36.11-.8v-3.25c0-.43-.04-.71-.12-.81-.08-.11-.24-.18-.5-.21v-.23h2.35zm6.67 0v.76c.32-.34.61-.58.87-.72.27-.14.57-.21.89-.21.37 0 .68.09.93.26s.44.43.58.79c.33-.37.64-.64.94-.8.31-.16.62-.25.95-.25.4 0 .72.09.95.28.24.18.4.41.49.7.1.28.14.73.14 1.34v2.36c0 .44.04.72.11.83.08.11.25.18.51.21v.22h-2.98v-.22c.23-.02.41-.11.52-.27.07-.11.11-.36.11-.76v-2.47c0-.51-.02-.84-.06-.98a.58.58 0 0 0-.2-.31.49.49 0 0 0-.31-.11c-.18 0-.35.07-.54.2s-.36.32-.55.58v3.09c0 .42.03.67.11.78.1.15.28.23.54.25v.22h-2.98v-.22c.16 0 .29-.05.38-.11a.48.48 0 0 0 .19-.26c.03-.1.05-.32.05-.66v-2.47c0-.52-.02-.85-.06-.98s-.11-.23-.21-.31c-.1-.07-.2-.11-.31-.11a.79.79 0 0 0-.45.13c-.19.13-.4.34-.62.65v3.09c0 .41.04.67.11.81.08.13.25.21.51.23v.22h-2.97v-.22c.24-.02.42-.1.52-.23.07-.09.11-.36.11-.8v-3.25c0-.43-.04-.71-.12-.81-.08-.11-.24-.18-.5-.21v-.23h2.34z"/><use xlink:href="#C" x="27.2" class="B"/><use xlink:href="#B" x="62.11"/><use xlink:href="#A" x="95.89"/><path d="M20.78 36.18a.41.41 0 0 1-.16.16m1.61-11.43c.17 0 .3-.13.3-.3s-.13-.31-.3-.31-.3.14-.3.31.13.3.3.3h0zm13.96-12.74H25.33v8.78c0 .85.37 1.59.86 1.82l4.18 2.49c.09.11.23.17.38.17.13 0 .25-.05.34-.13l4.24-2.54c.5-.23.86-.97.86-1.82v-8.77h0zm-7.25 2.54H28v-2.25h.94v2.25h0zm-.68.78l.13-.14-.09-.15.18.02.11-.19.11.18h.18l-.08.14.13.14-.17.03v.19l-.16-.12-.16.12v-.19l-.17-.03h0zm-2.62 2.79v-2.13h1.14v2.13h-1.14zm.19-3.09l.18.02.11-.19.11.18h.18l-.08.14.13.14-.17.03v.19l-.16-.12-.16.12v-.19l-.17-.03.13-.14-.08-.15h0zm1.29 2.17l.18.02.11-.19.11.18h.18l-.08.14.13.14-.17.03v.19l-.16-.12-.16.12v-.19l-.17-.03.13-.14-.08-.15h0zm.76-1.72c0-.06-.08-.07-.11-.07-.1 0-.14.17-.23.17-.06 0-.11 0-.11-.07 0-.06.13-.1.18-.15-.7 0-.72.32-.83.32-.19 0 .15-.34.25-.44-.14-.02-.22-.2-.38-.29.07-.11.11-.06.21.01 0-.08.06-.16.22-.16.32 0 .22.31.28.31s0-.31.21-.31c.31 0 .7.8.35.8-.15 0-.03-.12-.03-.14h0zm-.81-2.35l.13-.14-.08-.15.18.02.11-.19.11.18h.18l-.08.14.13.14-.17.03v.19l-.16-.12-.16.12v-.19l-.17-.03h0zm-.29-.84v2.25h-1.14v-2.25h1.14zm2.16 11.59l-2.6-1.55c-.43-.3-.65-.82-.71-1.45v-2.47h3.31v5.47h0zM28 18.27v-2.13h.94v2.13H28zm4.29 5.95l-1.2.72h-.02c-.09.07-.2.11-.32.11s-.23-.04-.32-.11l-1.19-.71v-5.65h3.05v5.65h0zm0-5.95h-3.05v-5.82h3.05v5.82h0zm3.6 2.77c-.06.63-.27 1.15-.71 1.45l-2.6 1.55v-5.47h3.31v2.47h0zm0-2.77h-3.31v-5.82h3.31v5.82h0zm-7.12 2.32s-.42.13-.3.12c0-.12.23-.36.33-.44-.02-.14-.2-.01-.38.09.62-.88.22-.52-.12-.46.55-.6.41-.58 0-.4.32-.25.39-.55.34-.64-.3.4-.58.34-.58.71 0 .24-.09.64-.21.78-.16.18-.04-.65-.46-.65-.13 0-.46 0-.55.15.09 0 .21.22.21.31s.08.33-.07.33-.32-.31-.32-.45v-.32c0-.35-.57-.85-.8-.85 0 .24.32.3.32.62-.13 0-.33-.25-.33-.1s.21.19.21.32-.23-.05-.23.1c0 .13.13.11.16.23-.1-.03-.18-.01-.2.03-.01.04.03.1.1.14-.03.03-.06.11-.06.31 0 .69.43 1.01.75 1.01.22 0 .19-.16.22-.23 0 .12.12-.06.12.15s-.22.12-.22.31c0 .25.35 0 .35.27 0 .33-.04.32-.04.45 0 .09.36-.12.34-.16.09.03.08.29.24.28.11 0 .13-.26.21-.29-.05.01.33.25.33.13 0-.32-.13-.19-.13-.41 0-.21.45-.17.38-.27-.06-.09-.1-.03-.15-.19 0 .03-.35-.51.08-.23.45.29.51-.69.48-.74h0z"/><use xlink:href="#D"/><use xlink:href="#D" x="-1.45" y=".86"/><use xlink:href="#D" x="-18.62" y="2.84"/><use xlink:href="#D" x="-17.51" y="2.94"/><path d="M53.77 10.84a2.23 2.23 0 0 1 .26 2.36c-.21-.02-.17-.29-.21-.44-.38-.71-.68-1.61-.34-2.4.25.04.15.34.29.48h0zm-45.36.86c-.11.46-.11 1.09 0 1.51-.1.1-.08-.1-.17-.08-.74-.54-.4-1.59-.59-2.33.04-.06.13-.08.19-.04.34.22.49.55.57.93h0zm46.99.06c.11.21-.1.42-.25.52-.17.04-.36-.06-.47-.21-.06-.21.06-.4.23-.5.19-.02.38.02.49.19h0zm-48.15.84c-.04.17-.1.34-.24.42-.11 0-.29 0-.36-.1-.11-.1-.13-.27-.08-.4.08-.13.23-.15.36-.17.13.06.26.1.32.25h0zm48.88.32c.04.11.04.19 0 .31-.13.17-.32.25-.51.17-.13-.08-.17-.21-.21-.32.04-.15.19-.29.32-.34.18 0 .29.1.4.19h0zm-1.07.02c.15.08.04.27.02.38-.1.1-.23.25-.4.19-.1-.1-.21-.1-.25-.23 0-.19.08-.38.27-.44.15-.04.24.04.36.1h0zm-1.39.29c0 .21.02.48-.23.52-.23.08-.38-.11-.43-.27-.02-.19.1-.38.28-.46.15 0 .29.1.38.21h0zm-44.36.09c.06.19-.13.31-.24.4-.13.04-.31-.08-.38-.21-.13-.13.04-.25.08-.36.19-.17.47-.04.55.17h0z"/><path d="M8.18 13.38c0 .15-.08.31-.21.36-.15.06-.3-.06-.38-.17-.1-.19.02-.36.17-.44.21-.08.34.11.42.25h0zm40.91.08a4.02 4.02 0 0 1 .38 1.38c-.08.36.06.84-.21 1.09-.27-.1-.28-.42-.45-.59-.34-.67-.04-1.45.08-2.1.15-.06.15.13.21.23h0zm-41.8.23c.06.23-.11.34-.25.48-.23.06-.38-.11-.47-.27a.49.49 0 0 1 .25-.46.48.48 0 0 1 .47.25h0zm44.79.55c.25.55.27 1.22.1 1.83l-.11.1c-.26-.52-.64-.99-.78-1.55 0-.4.08-.76.23-1.09.13-.1.21.02.26.13.02.21.12.46.31.57h0zm2.39-.34c-.02.19-.1.4-.29.46-.19.04-.38-.02-.43-.23-.06-.19.06-.36.21-.46.21-.11.42.08.51.23h0z"/><path d="M8.2 14.48c0 .15-.13.32-.29.36-.15.11-.26-.08-.4-.13-.06-.15-.1-.29 0-.44.06-.11.19-.11.31-.15.17.1.34.17.38.36h0zm.83-.09c.08.19-.13.29-.21.38-.23.08-.34-.1-.43-.23-.04-.19.08-.31.21-.42.23-.05.34.1.43.27h0zM55 14.33c-.02.25-.4.5-.43.75-.21.52-.66.9-1.18 1.07-.11.1-.27.23-.43.25-.04-.38.3-.73.51-1.07.4-.52.95-.84 1.53-.99h0z"/><path d="M7.82 15.13c.28.32.43.61.77.9.02.08-.04.19-.13.19-.93-.06-1.55-1.01-2.01-1.68.06-.21.3-.04.43-.06.32.25.68.32.93.65h0zm47.45.27c-.04.82-.43 1.66-1.18 2.06-.21.08-.43.29-.64.15.4-.82 1-1.49 1.67-2.21h.15zm-3.64.56c.06.29-.1.46-.32.55-.21.02-.34-.15-.43-.31-.02-.19.1-.36.27-.42.06-.06.15-.06.23-.06.11.04.16.13.26.23h0zm-44.86.17c.36.25.68.59 1.02.9-.24.17-.55.02-.84.02-.64-.23-1.08-.78-1.74-.97.02-.21.26-.13.4-.19.43-.04.76.15 1.16.25h0zm20.3-5.65c-1.06-.42-1.76.69-2.84.55-.13.08-.1.21-.17.31-.06.06-.15.02-.21-.02-.06-.46-.21-.88-.26-1.32-.11-.19-.06-.46-.15-.65-.61-1.66 1.48-.4 1.9-1.38.36-.84-.7-.94-1.02-1.53v-.25c-.3-.31-.63-.4-.82-.8.13-.48.19-.99.06-1.47-.02-.11-.1-.27-.26-.21l-.97 1.38c-.36-.27-.7-.61-1.12-.84-.29-.04-.55-.32-.87-.21-.06.11 0 .21.06.29.02.75.4 1.34.93 1.87l.06.29c-.34.78-.25 1.68-.34 2.52-.86 2.17-2.24 4.28-4.11 5.78-1.08 1.22-2.37 2.4-2.54 4.08-.06.27.04.59-.17.78-.63-.23-1.25-.54-1.76-.94-.87-.61-2.12-.54-2.69-1.64-.23-.44.06-.88.26-1.2.64-.61.55-1.7.21-2.44-.08-.02-.1.08-.15.1-.06 1.13-.95 1.91-.61 3.15.08.36.27.59.36.94-.13-.04-.32-.04-.43-.1-.42-.06-.84-.23-1.27-.17-.87.4-2.06-.1-2.77.71-.11.02-.27.04-.23.21.42 0 .81.11 1.23.1.66.11 1.1-.44 1.55-.69h.11c.19-.19.51-.08.76-.11 1.19.13 2.12.71 3.11 1.3v.08c-.38.17-.81.29-1.19.5-.43.32-.93.75-1.06 1.28-.3.48.1.9.29 1.3.02.19.04.42.21.5.61-.65.04-1.45.13-2.19.15-.57.68-.84 1.23-.99 1.08-.46 1.86.42 2.73.92-.02.88.1 1.72-.1 2.57-.27.1-.61.15-.89.13-1.5.11-2.67.94-4.02 1.39-.61.21-1.33.19-1.93.42.47.13.97-.04 1.46-.06 1.86-.27 3.28-1.7 5.29-1.45l.04.06c-.22.48-.53.88-.89 1.24-.06-.21-.08-.38-.27-.5-.15-.08-.32 0-.43.15-.06.1-.06.21 0 .29.1.17.25.21.42.27-.04.17-.25.25-.36.4-.53.9-1.61.54-2.24 1.17-.1.13-.43.21-.29.42.72.08 1.42-.11 1.95-.5L14.13 24c.11.61-.06 1.24-.42 1.74-.17-.1-.31-.23-.51-.29-.19.04-.32.23-.34.38.08.13.15.29.28.38-.64.46-1.46.5-2.2.71l-4.13.31c-.66-.04-1.42.19-2.04 0-.72.13-1.5-.1-2.08.31-.08.1.02.19.02.29.87.57 2.07.11 3.05.29h7.47c.55-.02 1.1-.04 1.53-.29.97-.55 1.5-1.55 1.99-2.52.19-.34.32-.75.4-1.15a1.65 1.65 0 0 1 1.42-1.17c.1.99-.1 1.98-.32 2.9-.11.61-.51 1.2-.27 1.85.06.31.38.31.63.34l7.01.04c.43.08.82.21 1.29.19.04-.06.17-.08.11-.19-.06-.21-.21-.48-.45-.54-.04-.11-.21-.08-.27-.15-1.21-.69-2.67-.32-4.09-.31-.74.08-1.48.21-2.1-.21-.28-.34-.08-1.43-.08-1.43 0-.43 1.04-3.43 1.18-3.68.04-.29.15-.55.11-.88.15-.38.11-.88.11-1.3.08-.61.38-1.18.59-1.78l.32-.88c.11-.36.15-.71.38-.99.62.39 1.22.38 1.52 1.08l.26 1.59c0 .1.08.29.21.17.49-.32.34-1.05.34-1.55.11-.59-.3-.88-.47-1.39-.13-.1-.35-.55-.35-.55-.08-.42-.99-.71-.79-1.22.11-.44.23-.84.64-1.09a.23.23 0 0 1 .1.13l.23-.16.02-1.6 2.15.08c.17.06.31.19.49.21l.15-.21 1.53-.3c-.66.08-1.06-.67-1.67-.67h0z"/><path d="M28.74 11.15s.09-.01.14-.03l-.14.03h0z" fill="#fff"/><path d="M12.23 16.47c.02.23-.11.36-.29.44-.15-.06-.26-.08-.36-.23-.08-.21.11-.36.26-.44.15.04.34.06.38.23h0zm-1.23 0c.11.11.13.31.08.44-.13.11-.34.21-.45.06-.11-.11-.22-.25-.13-.4.13-.13.36-.25.51-.1h0z"/><path d="M37.38,16.68v.03" fill="#fff"/><path d="M51.82 17.01c.08.21-.1.36-.24.44-.19-.06-.43-.1-.43-.34.02-.15.15-.25.28-.29.17-.06.32.08.4.19h0z"/><path d="M52.82 16.97c.06.1.19.25.04.34-.08.06-.13.08-.19.15-.21.04-.4-.04-.45-.23-.04-.21.13-.31.28-.4.13-.04.23.06.32.13h0zm-46.58.23c-.08.23-.26.32-.51.25-.06-.06-.11-.15-.15-.25.02-.13.06-.27.21-.32.23.02.4.11.45.32h0zm6.39.32c-.02.15-.19.29-.32.36-.19.02-.32-.13-.42-.27 0-.15.08-.34.23-.38.21-.08.43.08.51.29h0z"/><path d="M11.51 17.39a.31.31 0 0 1 .06.31c-.11.1-.29.27-.47.15-.11-.1-.25-.17-.21-.36.08-.08.17-.19.29-.23.15-.04.22.06.34.13h0zm44.21.23c0 .15-.15.31-.25.36-.15.06-.32.02-.42-.1-.11-.04-.08-.19-.08-.29a.72.72 0 0 1 .36-.25.67.67 0 0 1 .38.27h0zm1.21.17c-.06.17-.19.32-.36.34-.11-.02-.32-.06-.28-.23 0-.13.08-.27.17-.31.18-.1.41 0 .47.19h0zm-48.52.27c.04.23-.04.38-.23.46-.13.08-.27-.02-.36-.1-.1-.1-.17-.25-.1-.38.04-.17.21-.13.32-.21.17.02.27.1.36.23h0z"/><path d="M9.33 18.23c.06.15-.11.21-.15.32-.1.06-.23.11-.34.04-.13-.11-.28-.29-.15-.46.15-.28.55-.13.64.1h0zm45.27-.1c.02.19-.15.32-.26.44a.33.33 0 0 1-.38-.23c-.02-.15.08-.27.21-.36.17-.02.33 0 .43.15h0zm1.55.31c-.04.17-.02.36-.21.48-.15.04-.34.02-.45-.08s-.13-.27-.08-.4c.1-.15.27-.27.45-.23.14.08.18.17.29.23h0zm-48.47.4c.08.15-.1.19-.15.27-.13.08-.27.02-.38-.04-.13-.08-.08-.27-.06-.36.17-.32.51-.1.59.13h0zm47.28.36c.08.02.04.13.02.17-.45.23-1.14.29-1.53-.08-.23-.19-.51-.27-.76-.42.1-.25.43-.23.68-.29.55.08.98.59 1.59.61h0z"/><path d="M8.59 19.03c.04.15-.08.21-.11.32-.08.11-.23.08-.32.04-.17-.11-.25-.32-.13-.48.21-.21.45-.1.57.11h0zm1.67.11c.08.17-.04.32-.19.42-.13.08-.25-.04-.36-.06-.1-.13-.27-.29-.1-.44.17-.29.52-.13.64.08h0zm21.91.81c-.04.38-.66-.05-.58.45.09.36.16.8.38 1.07.18.25.09.65.07.96-.16.27-.43.47-.72.62-.54-.05-1.33.27-1.59-.4-.11-.29-.31-.58-.31-.91.05-.04.13-.04.18-.09 0-.13-.14-.2-.12-.32.61-.11-.25-.65.27-.69.43.45 1.13.31 1.51.8.09.07.16.18.27.23-.07-.45-.29-.91-.36-1.39-.05-.25.04-.49.21-.64.32-.25.59.11.77.31h0zm-20.24-.12c.06.19-.1.31-.21.4-.17.08-.26-.11-.34-.21-.06-.19.08-.29.19-.38.13 0 .28.06.36.19h0zm11.69.19c.23.75.15 1.51-.23 2.14-.02.15.04.4-.17.38-.51-.71-.13-1.7.08-2.44.04-.19.27-.27.32-.08h0zm16.22.36a2.21 2.21 0 0 1 .04 1.78l-.15.15c-.21-.44-.38-.88-.43-1.36.1-.34.21-.65.23-1.01.26-.06.24.29.32.44h0zm-26.43.21c-.11.23-.43.29-.64.44-.45.34-1.12.42-1.69.32.49-.69 1.25-1.09 2.16-.9.04.08.13.04.17.13h0zm-7.79.69c.7.5.89 1.18 1.31 1.87.06.08.25.1.17.25-.15.11-.3-.11-.51-.08-.72-.32-1.18-1.13-1.16-1.96 0-.08.11-.08.19-.08h0z"/><path d="M39.1 21.88c.02.19-.02.38-.17.44-.21.06-.38-.06-.43-.23-.06-.13.06-.21.1-.31.15-.15.42-.08.51.1h0zm8 1c0-.36.1-.71.13-1.05.06-.11.1-.25.08-.4.45-.61 1.39-.42 2.1-.36.29.15.64.13.95.21.13-.1.32-.11.47-.1.61-.32.21-1.03.25-1.59l-.23-.57c-.06-.11-.11-.25-.15-.38-.11-.13-.19-.38-.3-.52-.32-.84-.95-1.32-1.48-1.98-.97-1.26-2.48-1.97-4-2.46-1.5-.52-3.01.15-4.36.63-.42-.11-.63-.44-.74-.8-.08-.73.08-1.43.36-2.02.06-.48.38-.84.51-1.28.34-1.07.7-2.12.78-3.28.04-.71-.49-1.2-1.02-1.51-.36-.1-.78-.08-1.04.21-.25.52-.78.86-1.23 1.11-.04.32.36.11.49.23.42.08.89-.06 1.23.21.04.76-.4 1.39-.8 1.96-.64.96-1.33 1.93-1.72 2.98l-.08-.08.09 4.67c.6 1 1.36 2.15 2.48 2.53.61.5 1.37 1.09 2.18.65.43-.13.47.48.68.73.23.71-.28 1.2-.32 1.85l-.49 1.05c-.57 1.11-1.08 2.29-1.95 3.22-.29 0-.45.31-.74.32-.15.21-.45.06-.64.13-.59.25-1.42.1-1.82.65.04.06.1.08.15.1l3.68.04c.15-.06.29-.19.3-.36-.17-.32.06-.61.21-.86.1-.46.4-.75.53-1.18l1.29-2.33.59-.96c.13-.32.36-.73.59-1.07.15-.15.23-.32.34-.52.02-.19-.08-.27-.19-.4.13-.13.34-.1.51-.13.47.29.97.75 1.06 1.26l.17.5.08.23-.04.63.08.59c.1.92-.08 1.85-.17 2.77-.32 1.11-1.59.99-2.5 1.24-.23.15-.66.08-.66.46 1.1.23 2.39.1 3.56.08.19-.08.23-.25.32-.42.04-.25.29-.46.21-.73-.21-.27-.02-.69-.08-1.05.04-.1.04-.23 0-.36.15-.55.11-1.22.22-1.76l.08-.72h0zm9.32-.74c-.61.86-1.25 1.83-2.31 2.14-.08 0-.15.04-.19-.06.64-.69.98-1.76 1.99-2 .15-.08.36-.16.51-.08h0zm-51.73.93c-.1.08-.02.25-.19.27-.15.08-.32-.02-.4-.17-.08-.19.1-.38.24-.42.15.08.31.13.34.32h0zm5.46.27c.06.17-.13.17-.23.21-.8.29-1.61.02-2.18-.55 0-.08 0-.15.08-.17.77.19 1.69.04 2.33.52h0z"/><path d="M5.73 23.09c.04.08.06.21.04.29-.11.17-.29.21-.47.17-.11-.06-.17-.13-.25-.25.02-.19.17-.31.32-.36.16.02.27.06.36.15h0zm17.76.1c.04.17-.11.29-.23.36-.17.04-.32-.04-.4-.15-.06-.13 0-.32.13-.36.17-.04.43-.02.49.15h0zm33.65.08c.06.19-.11.29-.25.4-.11.06-.25 0-.36-.06-.02-.1-.13-.17-.1-.31.08-.17.24-.25.43-.23.1.08.17.1.27.19h0zm1.25-.08c.11.17.02.31-.08.44-.08.13-.23.17-.34.11-.11-.11-.27-.17-.28-.34 0-.15.17-.27.28-.32.19-.08.27.11.42.11h0zm-54.49.55c.02.13-.1.21-.13.32-.1.04-.19.11-.31.08-.13-.06-.23-.17-.28-.31.04-.17.15-.32.34-.38.15.04.32.11.38.29h0zm39.9 0c.04.08.02.17.02.25-.11.15-.26.29-.45.19-.11-.11-.25-.23-.19-.4.15-.21.47-.29.63-.04h0zm-36.86.29c-.04.13-.1.27-.27.29s-.23-.13-.32-.21c0-.17-.02-.34.15-.44.23-.08.43.11.43.36h0zm-1.82.04c.06.19-.08.32-.19.42-.23.08-.42-.1-.51-.27.02-.17.15-.38.34-.44.18 0 .27.19.36.29h0zm39.93-.04c.04.19-.02.38-.21.46-.23.08-.42-.11-.51-.27.1-.15.11-.36.34-.4a.44.44 0 0 1 .38.21h0z"/><path d="M6.02 24.11c.06.13-.06.19-.1.29-.1 0-.15.11-.26.08-.08-.1-.23-.13-.25-.27-.02-.19.11-.29.25-.36.19-.02.3.11.36.27h0zm50.08.15c-.06.15-.17.23-.32.31-.15.04-.25-.1-.36-.15-.1-.08-.06-.25-.02-.34.19-.32.7-.17.7.19h0zm1.44.08c-.06.21-.26.31-.45.32-.17-.08-.36-.21-.23-.44.08-.08.11-.15.23-.17.22-.08.4.1.45.29h0zm-9 .13c.1.25-.13.32-.28.44-.13-.02-.25-.08-.36-.15-.04-.21.06-.4.27-.5.16 0 .26.08.37.21h0zm-5.21.23c.1.04.06.17.04.23-.11.08-.26.27-.43.15-.13-.08-.23-.19-.19-.36.1-.21.49-.23.59-.02h0zm1.06.13c.02.15-.02.23-.15.31-.13.13-.29-.02-.42-.06-.04-.08-.08-.19-.02-.29.06-.08.15-.13.25-.15.13.04.28.04.34.19h0zm-32.16.02c.11.11-.02.25-.04.36-.1.11-.3.21-.47.1-.19-.08-.17-.32-.13-.48.11-.04.11-.17.26-.17.17.02.27.1.38.19h0zm38.33.08c.04.19-.15.27-.28.31-.23.08-.34-.1-.43-.25 0-.11.11-.19.15-.29.26-.11.43.08.56.23h0zm-1.02 0c.08.19-.13.29-.21.38-.13.06-.3.04-.42-.08-.1-.06-.1-.17-.1-.29.11-.1.17-.21.31-.25.17 0 .34.1.42.23h0z"/><path d="M58.09 25.16c.04.27-.3.13-.43.21-.8.48-1.82.11-2.58-.17.06-.25.34-.15.49-.25.82-.52 1.65.11 2.46.15l.06.06h0zm-51.87-.23l-.08.13c-.7.42-1.61.71-2.45.44l-.08-.11c.7-.52 1.63-.65 2.54-.52l.06.06h0zm46.28.13c0 .15-.08.29-.19.36-.19.06-.43 0-.49-.21-.06-.15.1-.31.25-.36.13 0 .36.02.43.21h0zm-42.89.08c-.08.15-.04.31-.23.38s-.42-.1-.47-.25c-.06-.21.1-.27.19-.36.23-.11.4.06.51.23h0zm-1.34.09c.06.13-.06.21-.1.31-.1.11-.27.1-.38.06-.13-.11-.26-.25-.21-.46.11-.1.17-.15.31-.21.17.04.34.11.38.31h0zm45.55.44c-.02.17-.15.31-.3.34-.15.02-.29-.1-.36-.19-.06-.11-.04-.27.08-.36.04-.06.17-.06.25-.1.17.02.3.15.33.31h0zm-46.95-.21c.06.15-.08.21-.1.32-.06.32-.26.54-.42.82-.36.44-.87.44-1.39.57l-.08-.15c.55-.71 1.14-1.26 1.92-1.61l.06.04h0z"/><path d="M52.88 25.88c.04.23-.15.27-.28.36-.17 0-.3-.1-.38-.23-.06-.21.13-.29.25-.38.18-.04.35.09.41.25h0zm-43.83 0s.02.08.06.1c-.02.21-.17.27-.29.36-.17 0-.3-.06-.42-.19-.08-.17 0-.38.19-.44.17-.02.4 0 .45.17h0zm47.31.57c.19-.02.22-.25.43-.29.19-.04.36.08.45.21.08.23-.1.34-.25.44-.13.1-.42-.11-.4.13.13.1.25.23.27.38-.04.08-.17.06-.23.02-.55-.23-1.14-.61-1.37-1.18-.08-.17-.43-.31-.23-.46.55-.03 1.01.41 1.31.75h0zm1.82-.59c.1.1.06.27-.02.36-.1.19-.38.11-.55.1-.1-.1-.19-.19-.15-.34.08-.11.15-.19.28-.25.17-.04.31.04.44.13h0zm-6.87 1.03a3.02 3.02 0 0 1 .42.76c-.04.06-.13.04-.17.04-.64-.36-1.48-.76-1.72-1.53-.06-.08-.21-.17-.19-.31.49-.1.97.27 1.31.54.13.19.29.29.36.5h0z"/><path d="M7.98 26.17c.08.17-.08.31-.17.38-.21.04-.32-.04-.43-.15-.13-.21.11-.38.27-.46.15-.02.25.13.34.23h0zm45.69.43c.02.11-.13.19-.19.27-.15.02-.3.08-.43-.06-.04-.1-.13-.25-.02-.34.21-.27.51-.06.64.13h0zm4.72.27c.06.23-.11.38-.27.48-.19.06-.34-.08-.45-.17-.1-.11-.02-.23 0-.36.13-.11.3-.21.49-.13.08.06.16.1.23.19h0zm-13.11 2.64c0 .23-.42.17-.59.34-.59.31-1.29.31-1.99.29v-.11c.68-.57 1.66-.78 2.57-.52h0zm-27.65.82c-.02.17-.11.27-.29.32-.13 0-.27-.08-.32-.19-.08-.23.11-.32.25-.42a.44.44 0 0 1 .36.29h0zm27.33.21c-.04.17-.1.36-.29.44-.17.04-.29-.06-.42-.13-.1-.08-.04-.21-.06-.31.13-.34.63-.34.76 0h0zm3.77.07c-.47.31-1 .67-1.63.67l-1.02-.02-.1-.08c.63-.76 1.76-.76 2.75-.69v.11h0zm-36.29.46c0 .17-.08.31-.25.36a.35.35 0 0 1-.4-.17c-.08-.17 0-.34.15-.44.21-.13.42.1.49.25h0zm.95.19c.06.1-.04.15-.08.25-.11.06-.26.1-.36 0-.13-.08-.17-.21-.11-.32s.17-.1.23-.17c.13.06.26.11.32.25h0zm-7.26 1.93c-.19.23-.49-.06-.7-.17-.66-.38-.64-1.13-1.31-1.57.08-.23.24.02.38-.02.11.08.26.15.4.21.65.36.8.97 1.24 1.55h0z"/><path d="M61.37 25.79c-.3-.55-.82-.78-1.42-.78-.49.04-.86.36-1.06.78-.11.42.04.8.36 1.05.13.06.3.04.38-.1.1-.25-.17-.25-.21-.44-.08-.27.02-.5.21-.67.19-.19.51-.1.74-.1.23.15.45.29.57.55.11.32.11.69 0 1.01-.21.48-.68.86-1.18.96-1.57.23-18.84.15-18.84.15-2.03.19-4.34-.38-6.08.69-.8.38-1.19 1.26-1.4 2.04-.51.46-1.06.99-1.48 1.51l-.06-.06c.1-.46.3-.86.4-1.32.28-.38.28-.9.49-1.32.72-1.17 1.4-2.35 2.52-3.17.47-.63 1.31-.52 2.03-.52.78.36 1.69.48 2.63.38.04-.04.06-.08.06-.13-.27-.25-.7-.34-1-.59-.76-.36-1.48.11-2.27.06-.04-.04-.08-.06-.06-.11.72-.54 1.53-.92 2.35-1.26.66-.36 1.37-.55 2.06-.82.29 0 .55-.25.82-.08l1-.27s.08.08.15.06c.85-.29 1.93-.02 2.9-.04l.13.11.91.23c.34.04.49.44.86.46.19-.27-.21-.38-.3-.55.42-.1.89.02 1.27.19l-.19.21c-.11.21.06.36.22.44.13.04.23-.06.32-.1.25-.17-.02-.34.06-.5 1.4.25 2.75.59 4.04 1.15.36.11.7.38 1.1.36-.4-.36-.95-.55-1.44-.76-.32-.19-.78-.21-1.02-.48.06-.1.19-.06.24-.13.64-.08 1.19-.55 1.65-1.07.04-.11.24-.08.23-.23-.17-.19-.45.06-.68.04-.8.15-1.14 1.09-1.93 1.26l-2.92-.71c-.47-.08-.98-.11-1.42-.31l-1.06-.1h-1.93s-.08-.06-.06-.11c.68-.17 1.27-.57 1.95-.75l5.08-2.33c.53-.48 1-1.01 1.44-1.57.02-.15-.08-.31-.21-.36s-.28-.04-.38.08c-.23.17 0 .38 0 .59-.23.31-.59.57-.87.75-.08-.02-5.23 2.35-5.23 2.35-.76.32-1.51.69-2.31.86l-1.1.17c-.08.23-.26.36-.47.44-.3.06-.55.25-.87.25-2.47.96-5.02 1.97-6.97 3.91.11-.23.17-.52.19-.8-.04-.29-.02-.61-.21-.84-.05-.11-.19-.42-.14-.53l-.28.18c-.17.42-.32 1.18-.15 1.62.06.34.34.75.08 1.05-.91 1.11-1.42 2.45-2.03 3.7-.23-.04-.34-.25-.43-.46.64-.82 1.16-1.73 1.35-2.79.13-.1.04-.34.17-.46-.04-.31.17-.61.02-.86.12-.42-.55-.8-.12-1.07l-.36.17c-.82 1.07.43 2.67-.51 3.7v.08c-.26.34-.4.69-.76.92-.45-.19-.63-.71-.89-1.09-.42-.4-.42-1.22-.17-1.77.17-.55-.11-1.03-.17-1.53l-.19-.11c-.45.59-.63 1.53-.27 2.23.19.34.21.82.49 1.11.17.55.51.92.82 1.41.08.19-.11.23-.21.32-.21-.13-.17-.44-.36-.57-.63-1.33-1.44-2.4-2.43-3.49-.04-.17-.21-.32-.11-.52.36-.34.43-1.01.25-1.45-.04-.1-.15-.21-.13-.31l-.29-.23c.04.67-.4 1.26-.21 1.96v.04c-1.95-1.47-4.11-2.78-6.31-3.81l-.18.48c.55.14 2.03 1.04 2.03 1.04.66.25 1.27.65 1.9 1.01 2.57 1.43 4.28 3.8 5.44 6.43.02.21.21.44.08.65-.4-.61-.97-.96-1.44-1.45-.13-.9-.66-1.76-1.44-2.12-.28-.42-.89-.46-1.37-.59l-6.9-.04c-5.61-.08-10.72.17-16.3.08-.78-.08-1.72-.34-1.95-1.17-.15-.29-.15-.78 0-1.05.21-.36.59-.48.97-.52.3.04.51.32.64.54 0 .25-.21.48-.31.69.02.08.1.23.23.17.25-.1.43-.36.49-.61.02-.13.08-.32-.06-.42-.11-.4-.53-.69-.89-.78-.47-.04-.97.1-1.29.44-.45.38-.43 1.07-.3 1.61.3.84 1.19 1.41 2.04 1.53l18.44.08c1.8.1 3.83-.21 5.65.15.66.21 1.37.71 1.53 1.45-.02.04-.08.02-.13.02-1.5-.97-3.47-1.34-5.38-1.11-.76-.04-1.44.25-2.12.44-.36.08-.7-.1-.93-.31-.68-.61-1.88-.57-2.75-.34 0 .06-.02.11.02.13.93-.08 1.48.73 2.31.82.19.04.34-.17.51-.02-.87.42-1.71.92-2.63 1.18-.28-.06-.43-.32-.66-.48-.36-.4-1.02-.23-1.51-.27-.17.04-.32-.08-.43 0 .15.31.49.48.82.63.47.21 1.02-.02 1.46.27-.11.13-.27.17-.4.27-.89.34-1.63 1.15-2.61 1.09-1.04.11-2.1-.19-2.8-.92-.3-.75-1.08-1.15-1.92-1.11-.06.04-.13.04-.11.13.42.25.74.75 1.16 1.03.27.32.78 0 1.02.36.36.25.82.46 1.23.54.3.13.64.19.98.27l-.13.08c-1.72.57-3.72.63-5.65.55-.57-.02-1.12-.19-1.69-.17.1.11.28.21.45.27-.15.1-.32.13-.51.15-.23.06-.49.08-.72.19-.3-.02-.57.1-.81.19-.32.34-.7.71-1.08.88 0 .08-.02.19.08.19.36-.15.82-.04 1.18-.19.63-.06.98-.75 1.48-1.03.53-.42 1.29-.32 1.93-.23.38.1-.04.25.08.5.15.13.28.29.49.23.04-.04.08-.08.13-.1.11-.15.1-.32.02-.48.27-.17.63.02.91-.1.72-.02 1.44-.17 2.14-.19.11-.02.25-.13.36-.02-.06.15-.25.17-.17.38.04.17.23.25.38.29.19-.08.36-.21.29-.46-.04-.13-.19-.15-.29-.21.4-.19.86-.25 1.25-.44a3.59 3.59 0 0 0 .8-.27c.25-.02.45-.25.68-.15a4.42 4.42 0 0 1-.4.92c-.3 1.01-.53 2.35 0 3.32.06.02.08-.02.11-.04-.4-1.01-.17-2.17.17-3.13.26-1.62 1.93-2.1 3.13-2.71l.06.08c-.32.84-.8 1.64-.72 2.65.04.17-.08.34 0 .46.32-.17.53-.55.7-.88.13-.86-.36-1.93.51-2.56 1.55-.61 3.01-1.41 4.81-1.43.06.06.19-.04.21.08-.38.42-.93.82-1.1 1.34-.61.84-.59 2.27-.32 3.3.17.59-.34.92-.59 1.38-.12.16-.15.44-.26.63l.37.04c.32-.34.63-.76.64-1.26.04.19.21.34.36.38.13-.21-.11-.36-.13-.57.3-.17.43.21.68.29.4.1.74.27 1.16.27l.13-.13c-.42-.65-1.25-.76-1.97-.8-.38-.63-.38-1.41-.34-2.17.08-.4.15-.82.38-1.18.1-.27.36-.52.53-.73.34-.32.78-.55 1.19-.65h.06l.02.06c-.51.4-.57.96-.87 1.45-.32.48-.47 1.13-.17 1.66.11.25.06.63.32.8.24-.34.27-.78.4-1.17-.06-.63-.43-1.22-.08-1.83.19-.48.59-.67 1.02-.84 1.04-.1 1.95.44 2.86.84.19.13.51.25.55.52-.02.52-.3 1.03-.7 1.28-.51.31-1.25.34-1.72-.02-.28-.29-.4-.78-.3-1.17.21-.23.49-.42.84-.31.19.1.36.29.61.17.1-.06.13-.21.08-.31-.21-.11-.28-.4-.57-.44-.36-.06-.8-.04-1.04.21a1.33 1.33 0 0 0-.43 1.34c.13.61.59 1.05 1.18 1.22.87.21 1.78-.06 2.33-.8.23-.25.28-.52.42-.82.91.55 1.59 1.53 1.95 2.52 0 .32.1.67.02.96l.66.06c-.06-.15 0-.32.06-.46.25-1.26 1.02-2.31 1.95-3.13.32-.19.25.25.32.38.28.73.95 1.24 1.65 1.45.8.13 1.55-.06 2.04-.67.25-.46.55-1.13.13-1.61a1.32 1.32 0 0 0-1.04-.5c-.49 0-.8.34-1.04.71 0 .15-.02.32.11.4.08 0 .23.02.29-.1.04-.29.28-.42.51-.57.21-.11.43 0 .61.11.21.17.25.46.26.75-.04.36-.28.75-.63.9-.55.29-1.35.15-1.82-.17-.23-.25-.36-.54-.53-.84-.04-.31-.15-.57 0-.88.84-.5 1.71-.86 2.71-.96.4.08.74.34 1 .63.87.9-.19 2.17.42 3.17.23-.04.23-.34.32-.54.29-.69-.08-1.43-.24-2.1-.23-.42-.36-.78-.72-1.13.1-.04.13-.04.23-.04.4.27.84.57 1.16.99a5.09 5.09 0 0 1 .74 3.13c-.15.57-.76.84-1.23 1.05-.19.15-.42.38-.51.61.23.13.55 0 .78-.1.36-.13.57-.59.82-.8.04.02.02.08.04.11.02.21-.1.5.1.55.1-.27.11-.65.17-.97.25.27.28.61.36.96.17.34.45.8.91.86.11-.17-.02-.34-.06-.5-.06-.48-.45-.73-.72-1.07-.66-.92-.36-2.35-.87-3.38-.19-.55-.59-.96-1.02-1.41l.08-.08c.93-.02 1.71.29 2.56.46 1.04.52 2.56.4 3.05 1.76.21.76.55 1.47 1.08 2.06l.06-.04c.11-.19.11-.52 0-.71-.11-.96-.95-1.18-1.39-1.99l.06-.08c.45.13.93.25 1.39.44 1.51.42 2.57 1.91 2.77 3.45a7.51 7.51 0 0 1-.7 3.26c-.06.15-.32.32-.15.46.21-.15.25-.4.36-.57.63-1.05.95-2.5.63-3.84-.02-.25-.3-.44-.17-.69.1.11.21.13.32.17.11-.08.29-.08.36-.21.02-.11.1-.25 0-.34-.11-.17-.36-.17-.55-.13-.1.11-.21.27-.23.42-.19-.32-.38-.75-.68-1.01l.04-.06c.86.29 1.63.71 2.5.94.19.11.4.21.66.21.74.29 1.55.4 2.33.59.57-.06 1.04.21 1.61.08v-.04l-.02.02c-.21-.27-.66-.02-.91-.21-1.31-.13-2.56-.48-3.73-.94.02-.06.1-.04.15-.04.19-.1.32-.27.3-.48a.53.53 0 0 0-.43-.21c-.11.06-.26.19-.29.32a.47.47 0 0 0 .29.36c-.04.04-.11.02-.17.02l-1.72-.78c-.21-.04-.38-.21-.59-.25-.43-.21-.87-.42-1.31-.59-1.21-.63-2.56-.97-3.85-1.43l-.82-.23-1.42-.38c-1.61-.4-3.77-.44-5.17.44-.23-.08-.36.29-.47.06.4-1.05 1.55-1.39 2.59-1.43l22.21-.25c.87 0 1.72-.31 2.18-1.09.34-.43.4-1.22.15-1.73h0zm-30.13 7.04c-.08.23-.23.42-.21.67l-.08.04c.06-.29-.23-.46-.15-.76-.15-.23-.15-.52-.28-.76-.17-.31.15-.44.28-.65.27.11.36.36.55.59.12.32-.13.57-.11.88h0z"/><path d="M51.8 31.63c0 .06.11.08.08.17-.66.59-1.59.76-2.54.8-.08.02-.15.08-.24.06-.06-.04-.08-.1-.04-.13.68-.75 1.72-1.13 2.74-.9h0zm-3.06.3c.08.27-.1.42-.31.52-.21-.02-.32-.15-.42-.31-.06-.15.08-.23.13-.32.15-.15.51-.15.59.11h0zm-36.02.04c.04.13.02.31-.1.4-.08.1-.25.11-.34.1-.13-.02-.21-.17-.24-.29 0-.17.1-.27.24-.36.15 0 .32-.02.44.15h0zm-3.39 1.24v.13c-.45.1-.89-.02-1.23-.29-.26-.38-.57-.76-1-.96 0-.06-.11-.13 0-.17.95 0 1.51.76 2.24 1.28h0zm45.35-1.26c-.43.65-.82 1.45-1.59 1.74-.13 0-.25.19-.36.06.31-.73.95-1.51 1.69-1.81.07 0 .19-.02.26.01h0zm-40.86.23c.02.21-.13.25-.27.36-.15.02-.23-.1-.32-.21-.08-.19.1-.27.19-.36.15-.04.32.08.4.21h0zm43.25.11c-.17.25-.1.61-.26.88-.38.44-.7.94-1.31 1.03-.1-.19.13-.38.23-.55.27-.57.64-1.22 1.25-1.47l.09.11h0zm-53.61.18c.06.13.11.27 0 .42a.44.44 0 0 1-.43.08c-.17-.1-.23-.31-.15-.46.11-.17.45-.27.59-.04h0z"/><path d="M2.38 32.7c.02.1.08.17.06.27-.06.1-.15.21-.26.23-.21.04-.34-.08-.43-.25-.02-.17.04-.32.19-.4.17-.08.36.02.45.15h0zm2.23.11c.04.15.08.42-.15.45-.27.11-.42-.08-.57-.23 0-.17.1-.31.23-.38.19-.01.36 0 .49.16h0zm3.11.25c-.02.13.02.32-.13.36-.1.1-.26.06-.36.04-.04-.11-.25-.21-.13-.34.08-.1.15-.15.26-.21.11.06.29 0 .36.15h0zm51.16.13c-.06.13-.13.31-.29.31-.17-.02-.34-.04-.43-.21-.08-.21.1-.32.25-.38.19 0 .44.08.47.29h0zm-3.46.1c.02.15-.15.27-.23.32-.27.11-.49-.08-.59-.29.04-.17.17-.29.32-.34.24-.02.38.11.49.31h0zm2.34-.04c0 .13-.08.27-.17.32-.15.06-.34.04-.45-.08-.17-.15-.04-.29.08-.4.17-.1.49-.08.55.15h0zm-54.8.32c.04.21-.04.4-.23.48-.17 0-.36-.1-.42-.27-.02-.17.04-.34.19-.4.19-.05.34.06.45.19h0z"/><path d="M54.47 33.78c.06.21-.06.4-.27.5-.15.04-.25-.04-.36-.13-.08-.1-.17-.31-.02-.4.15-.29.53-.17.64.04h0zm-41.31.21c.08.21-.15.25-.21.36-.08.04-.23.06-.28-.02-.1-.11-.21-.23-.15-.4.1-.08.13-.15.25-.19.21-.05.29.13.4.25h0zm45.38.13c.04.13-.08.19-.1.29-.11.1-.3.11-.43.08-.17-.1-.17-.25-.17-.42.11-.08.13-.17.26-.21.18 0 .38.08.44.27h0zm-1.17.06c.08.23-.13.34-.28.4-.08.02-.19-.04-.21.08.49.25.8.65 1.18 1.01v.15c-.68-.02-1.39-.19-1.88-.73-.13-.1-.36-.1-.51-.23.25-.25.7-.15 1.04-.17.25-.27-.28-.46.04-.69.11-.02.19-.13.34-.1.13.06.21.15.29.27h0zm-7.75.02c.04.1-.08.21-.1.31a.41.41 0 0 1-.42.08c-.1-.13-.25-.25-.19-.44.15-.29.64-.23.7.06h0zm-42.37.67c-.06.17-.13.29-.32.31-.15-.02-.28-.08-.34-.23-.02-.13.08-.21.1-.31.2-.17.58-.06.56.23h0zm1.53-.25c0 .27-.28.42-.38.69-.28.63-.8 1.2-1.51 1.26-.08-.17.25-.38.32-.55.3-.65.91-.99 1.46-1.39h.11z"/><path d="M49.16 34.89c.02.21-.17.36-.32.44-.17.06-.3-.08-.4-.15-.15-.15-.06-.31.02-.46.22-.23.54-.04.7.17h0zm1.18.13a.47.47 0 0 1-.34.42c-.04-.06-.13-.02-.19-.04-.13-.08-.25-.19-.25-.34.1-.1.13-.25.27-.27.17-.02.45 0 .51.23h0zM11.72 35c.02.21-.13.32-.28.4-.17.02-.29-.1-.36-.23-.04-.17.13-.29.22-.38.22-.08.28.1.42.21h0zm1.31.08c-.06.17-.17.29-.36.32-.13-.04-.28-.08-.34-.23-.02-.19.13-.29.26-.38.19 0 .4.08.43.29h0zm41.38 1.34c.1.08.26.17.22.31-.3.13-.55-.21-.83-.27-.45-.46-.8-.96-.98-1.53.17-.17.36.04.51.1.44.36.86.84 1.08 1.39h0zm.7-1.34c.06.13.04.29-.04.42-.11.19-.36.15-.53.11-.1-.11-.27-.27-.15-.44.06-.15.23-.19.36-.25.13-.02.23.1.36.15h0zm-40.34.5c.02.15.06.38-.13.48-.17.04-.4-.02-.45-.23-.1-.23.11-.27.23-.38.15-.04.25.04.36.13h0zm35.51 1.24a2.86 2.86 0 0 1 .49 1.36c-.06.13.1.27-.02.36h-.08c-.86-.61-1.04-1.47-1.37-2.33-.08-.04-.1-.11-.08-.19.19-.17.32.17.51.23l.54.57h0z"/><path d="M17.23 36.17s0 .04.02.04c-.75.54-1.82.86-2.69.34-.02-.06.02-.15.1-.17.55-.17 1.08-.44 1.67-.36l.91.15h0zm-4.32.09c-.64.4-1.23 1.18-2.03 1.38-.15.06-.24.27-.43.15.34-1.03 1.46-1.58 2.47-1.68v.15h0zm36.25.86c.06.15 0 .36-.15.4-.1.1-.28.1-.36 0-.17-.08-.17-.25-.17-.38.06-.13.19-.15.28-.21.17.04.31.04.4.19h0zm-1.57.1c-.11.27-.43.42-.68.5-.64.23-1.23-.08-1.8-.23.02-.15.21-.1.3-.19.63-.13 1.27-.27 1.93-.1.07-.04.2-.06.25.02h0zm-34.68.55c-.06.08-.08.25-.23.31-.13.06-.26 0-.38-.08-.04-.11-.17-.21-.08-.34.04-.13.19-.17.3-.21.19.02.34.13.38.32h0z"/><path d="M14.03 37.94c-.06.11-.11.29-.26.36-.15.04-.27-.04-.38-.13-.06-.11-.11-.25-.06-.38.04-.1.17-.11.27-.17.18-.02.35.17.43.32h0zm34.77.19c.02.15-.06.25-.13.36-.1.13-.28.15-.42.08-.13-.02-.17-.17-.23-.27-.11-.15.08-.25.13-.38.21-.17.55-.08.64.21h0z"/><path d="M49.64 38.09c.02.1.08.19.04.27-.11.1-.19.34-.42.25-.11.04-.17-.11-.22-.15-.08-.19-.02-.48.22-.52.17-.06.28.1.38.15h0zm-36.29.56c.04.21-.04.4-.19.52-.21.04-.47.04-.55-.21-.02-.19 0-.44.23-.55.19-.02.42.02.51.25h0zm1.08-.08c-.04.54-.15 1.18-.68 1.49-.31.06-.61.34-.91.15v-.1c.4-.57 1.12-1.01 1.59-1.55h0zm31.4.44c.08.11-.06.21-.11.31-.11.13-.32.08-.45.02s-.15-.25-.1-.38c.04-.11.15-.17.25-.21.17-.02.32.13.42.27h0zm-29.5.88c.26.44.11 1.03.26 1.51-.32.04-.45-.32-.66-.52-.42-.57-.36-1.34-.55-2 .04-.06.1-.06.13-.04.28.19.49.55.72.8-.04.13.11.13.1.24h0zm30.45-.73c0 .15-.17.19-.26.29a.75.75 0 0 1-.36-.17c-.06-.19.1-.25.19-.34.18-.08.37.02.43.23h0zm2.25 1.7c0 .06-.02.17-.11.13h-.08c-.55-.5-1.1-1.05-1.02-1.82l.11-.02c.51.44 1.08.92 1.1 1.7h0zm-1.42-.61c.02.15-.08.27-.17.36-.21.06-.53.04-.57-.25-.02-.19.19-.29.29-.38.23-.06.38.1.45.27h0zm-1.25.4c-.26.71-.98 1.07-1.48 1.61-.1-.06-.06-.21-.04-.29.19-.73.76-1.43 1.46-1.72.31.04 0 .25.06.4h0z"/><path d="M47.78 41.22c0 .17-.17.25-.27.34-.15-.02-.3-.06-.42-.21-.02-.19.13-.25.24-.34.2-.04.36.06.44.21h0zM33.68 6.58a.47.47 0 0 1 0 .94h-5.62a.47.47 0 0 1 0-.94h5.62zm-3.97.81c.55 0 .03-.66-.27-.66h-.55c-.55 0-.03.66.26.66h.55zm2.3 0c.55 0 .03-.66-.27-.66h-.55c-.55 0-.03.66.27.66h.55zm1.7-.66h-.21c-.55 0-.08.66.21.66.37 0 .39-.66 0-.66h0zm-.53 6.29l1.07.41 1.06-.41-.42 1.58.84-.17-.29.96.29.92-.74-.2.32 1.71-1.06-.41-1.07.41.44-1.71-.86.24.23-.96-.23-.92.82.13-.4-1.58h0zm1.59 2.85c.24 0 .26-.33.26-.62 0-.65-.52 0-.78-.61-.19.52-.72.04-.72.59 0 .38 0 .64.38.64h.86zm-1.05-.59c0 .25.33.08.58.08s.58.17.58-.08c0-.35-.33-.23-.58-.23s-.58-.12-.58.23h0zm-3.05.07v-.2l-.17-.03.13-.15-.08-.17.18.02.11-.19.11.19.19-.02-.09.17.14.15-.18.03v.2l-.17-.13-.17.13zm-.83 1.07v-.2l-.18-.03.14-.15-.08-.16.18.02.11-.2.11.19.18-.01-.08.16.14.15-.18.03v.2l-.17-.12-.17.12zm1.41-.13v-.2l-.18-.04.15-.15-.09-.16.18.02.12-.2.1.2.19-.02-.09.16.15.15-.19.04v.2l-.16-.13-.18.13zm.17.8v-.12l-.1-.02.08-.08-.05-.09.11.01.06-.11.06.11.1-.01-.04.09.07.08-.1.02v.12l-.09-.08-.1.08zm-1.31.91v-.34l-.31-.06.24-.25-.15-.28.32.04.19-.34.19.33.32-.03-.15.28.24.25-.31.06V18l-.29-.21-.29.21zm.67-18l.67 1.64 1.68-.5-.85 1.55 1.44 1.02-1.74.29.11 1.78-1.31-1.19-1.31 1.19.1-1.78-1.73-.29 1.44-1.02-.86-1.55 1.69.5.67-1.64zm-6.12 36.8c-.2.08-.28.13-.23.34l.24 1c.04.19.06.48-.07.66-.15.21-.46.35-.69.41-.17.04-.52.11-.81-.01-.19-.08-.32-.17-.4-.51l-.25-1.06c-.06-.26-.16-.25-.38-.21l-.02-.08 1.27-.31.02.08c-.25.07-.36.1-.3.38l.25 1.06c.04.18.15.62.69.49.66-.16.55-.64.51-.85l-.23-.96c-.04-.19-.11-.29-.44-.22l-.02-.08.83-.2.03.08h0z"/><path d="M26.54 37.01c-.11-.21-.42-.52-.87-.42-.2.04-.38.19-.34.39.04.17.12.22.47.29l.61.11c.14.02.47.14.54.49.06.28-.1.72-.79.87-.36.08-.55 0-.67.04-.08.02-.09.08-.09.13l-.11.02-.17-.78.11-.02c.15.3.44.61.92.51.45-.1.4-.42.39-.46-.05-.21-.24-.25-.51-.29l-.28-.04c-.7-.11-.76-.39-.79-.54-.04-.19-.02-.65.7-.81.3-.07.5 0 .61-.03.09-.02.1-.07.1-.13l.11-.03.15.69-.11.02h0zm2.51 1.26l-1.38.13v-.08c.27-.05.36-.06.33-.33l-.16-1.7c-.27.04-.66.09-.69.62h-.11l-.05-.64 2.31-.22.07.65h-.11c-.12-.5-.53-.48-.79-.46l.16 1.7c.03.27.12.27.41.26v.08h.01zm3.21 0h-.79l-.78-1.05h-.11v.64c-.01.26.07.27.32.31v.08l-1.3-.02v-.08c.26-.02.34-.03.34-.29l.03-1.43c0-.28-.11-.29-.33-.31v-.08l1.24.02c.27 0 1.09.05 1.08.59 0 .4-.41.49-.62.54l.76.94c.05.06.11.06.16.07v.07h0zm-1.68-1.15c.51 0 .71-.06.72-.48 0-.33-.15-.47-.46-.48-.21 0-.22.03-.24.13v.83h-.01z"/><path d="M34.79 38.59l-1.24-.16v-.08c.25.01.32.02.33-.09 0-.09-.08-.34-.12-.45l-.86-.11-.22.39c-.01.12.17.15.3.18v.08l-.79-.1v-.08c.22 0 .29-.1.43-.33l1.07-1.66h.11l.64 1.82c.13.37.18.48.36.5v.09h0zm-1.07-.91l-.29-.83-.46.74.75.1h0zm3.32 1.37l-2.2-.41v-.08c.23.02.35.03.38-.17l.28-1.54c.04-.21-.11-.24-.29-.29v-.08l1.34.24v.08c-.28-.04-.4-.06-.45.22l-.27 1.5c-.03.15.05.2.31.24.57.11.84-.12 1.07-.45l.11.02-.29.7h0zm1.47.33l-1.32-.28.02-.08c.21.03.36.05.4-.15l.32-1.53c.04-.21-.13-.25-.31-.3l.02-.08 1.32.28v.08c-.2-.03-.38-.07-.42.15L38.22 39c-.04.21.11.24.31.3l-.02.08h0zm2.68.34l-1.25-.13v-.08c.25 0 .32.01.33-.1 0-.09-.09-.34-.13-.45l-.86-.09c-.13.22-.21.35-.21.4-.01.12.17.15.3.17v.08l-.79-.08v-.08c.22 0 .29-.11.43-.34l1.03-1.68h.11l.68 1.8c.14.36.19.48.37.49v.09h0zm-1.09-.88l-.31-.82-.44.75.75.08h0zm-8.79-25.29c0-.78-.43-.05-.68-.71-.18.56-.7.09-.7.69 0 .23.06.36.17.43v.23c0 .06.05.11.11.11h.83c.06 0 .11-.05.11-.11v-.25c.11-.09.17-.22.17-.4h0zm-.67.15c-.23 0-.54.16-.54-.11 0-.38.26-.3.49-.3s.58-.09.58.3c0 .27-.3.11-.53.11h0z"/><use xlink:href="#D" x="-2.27" y=".22"/><use xlink:href="#E"/><use xlink:href="#E" x="-11.45"/><path d="M27.82 11.57s-.17.28-.17.33c0 .11.08.19.17.19.1 0 .17-.09.17-.19l-.17-.33h0z"/><use xlink:href="#E" x="-5.72"/><use xlink:href="#E" x="-2.86"/><path d="M24.97 15.5s.17.28.17.33c0 .11-.08.19-.17.19s-.17-.08-.17-.19l.18-.33h0zm0 3.81s.17.28.17.33c0 .11-.08.19-.17.19s-.17-.08-.17-.19l.18-.33h0zm.46 3.02s.17.28.17.33c0 .11-.08.19-.17.19s-.17-.09-.17-.19l.18-.33h0zm2.4 1.61s.17.28.17.33c0 .1-.08.19-.17.19-.1 0-.17-.09-.17-.19l.17-.33h0zm8.73-8.44s-.17.28-.17.33c0 .11.08.19.17.19.1 0 .17-.08.17-.19l-.17-.33h0zm0 3.81s-.17.28-.17.33c0 .11.08.19.17.19.1 0 .17-.08.17-.19l-.17-.33h0zm-.46 3.02s-.17.28-.17.33c0 .11.08.19.17.19s.17-.09.17-.19l-.17-.33h0zm-2.4 1.61s-.17.28-.17.33c0 .1.08.19.17.19s.17-.09.17-.19l-.18-.33h0zm-2.92 1.7s-.17.28-.17.33c0 .1.08.19.17.19s.17-.09.17-.19l-.18-.33h0zm4.65-5.69c.04.05.12.07.24.03l.11-.31s-.12-.14-.21-.12c-.31.07-.63.11-.81.4 0 .2.14.38.29.47.11-.04.12.07.2.13.02.09-.04.16-.12.16-.21-.22-.59.07-.75-.2.07-.27.21-.58-.02-.84.02-.05.11-.11.05-.16-.09-.25-.36-.05-.52-.05-.27-.04-.49.11-.65.32.02.09.05.18.14.27.07-.02.11 0 .12.07l-.18.11c.05.05.05.13.07.2-.12.05-.25-.13-.31-.22 0-.14.02-.4-.18-.43-.03 0-.16.05-.16.05-.04.06-.07.17-.07.3s.07.32.07.32.55.41.68.66c-.16.32-.16.78-.54.96-.11.07-.11.18-.11.29l.1.07c.23-.13.68-.16.65-.56.09-.16.18-.34.34-.47.18-.04.34.05.42.2-.05.27-.23.45-.49.54-.04.04-.02.09-.02.14.07.13.27.07.38.05.31-.2.43-.56.7-.67.04.18-.36.23-.11.42.16-.04.38.02.49-.2-.12-.31.43-.45.09-.73 0-.27.29-.38.27-.67-.11-.29-.45-.29-.54-.56.11-.07.28-.05.38 0h0z"/><use xlink:href="#D" x="-18.08" y=".36"/><path d="M3.72 34.09a.34.34 0 0 0 .35-.34c0-.19-.16-.34-.35-.34s-.35.15-.35.34.16.34.35.34h0zm11.82 2.63h-.02l-.02-.03h0v.02h-.04v-.04h.04s.03 0 .03.02c0 0 0 .01-.02.01l.03.03h0zm-.05-.03s.02 0 .02-.01l-.01.01h0zm.1-.01s0-.02-.02-.02h.01s.01.01.01.02 0 .02-.03.02h-.02v-.02h0s0 .02.02.02h0l-.02-.02s0-.02.02-.02h.02 0v.02h0zm.11-.02l-.02.06h0l-.02-.04h0l-.02.04h0l-.02-.06h.03v.04h.01v-.03h.01l.03-.01h0v.04h0v-.03h.01.01z"/><path d="M15.71 36.72s.02 0 .03-.02h0s-.02 0-.02-.02c0 0 0-.02.02-.02 0 0 .02 0 .02.03 0 .01-.01.03-.05.03h0zm.02-.03h0v-.03h0v.03h0z"/><path d="M15.77 36.68c.02 0 .03 0 .03.02 0 .01-.01.02-.03.02h-.01.02c-.02-.02-.02-.01-.03-.01v-.03h.01v.02zm21.59-25.56h-13.2v10.09c0 1.03.44 1.93 1.05 2.21l5.08 3.22c.11.13.28.21.46.21.16 0 .31-.06.41-.16l5.16-3.27c.6-.28 1.04-1.18 1.04-2.21V11.12h0zm-.37 10.22c-.07.76-.33 1.4-.86 1.76l-4.98 3.16h-.03c-.11.08-.24.13-.38.13a.62.62 0 0 1-.39-.14l-4.97-3.16c-.53-.36-.79-.99-.86-1.76v-9.86h12.46v9.87h0zm-4.45 4.49l.16-.08c-.07.02-.12.05-.16.08h0zm-9.97 13.79l-1.25.14v-.08c.23-.04.3-.05.28-.16 0-.09-.16-.31-.22-.41l-.86.1c-.08.24-.13.38-.12.43.01.12.2.11.33.1v.08l-.77.09v-.08c.2-.05.23-.17.32-.42l.65-1.86h.11l1.05 1.58c.21.32.29.43.47.4v.09h0zm-1.26-.63l-.48-.74-.27.83.75-.09h0z"/><path d="M44.44 34.89c-.22-.59-.7-.99-1.29-1.18-.61-.13-1.25-.04-1.65.42-.68.55-.21 1.47-.19 2.21 0 .15.02.27-.13.34-2.75-.25-5.31-.94-8.04-1.22-.63-.11-1.26-.08-1.85-.21l-.76-.08c-2.37.08-4.74.21-6.96.78-.47.15-1 .19-1.48.36-.34-.06-.63.19-.95.1l-.63.14c-.06 0-.13 0-.21-.01-.3-.78.61-1.26.32-2.02-.25-.44-.74-.86-1.31-.78-.64-.08-1.21.29-1.51.78-.43.96.11 1.94.29 2.88-.04.31.31.65 0 .9-.61-.42-1.4-.65-2.14-.44-.23.11-.64-.04-.75.23.82.44 1.86.38 2.77.34.11-.04.19-.06.28.02.08.5-.1 1.17.21 1.61.34.46.91.57 1.46.63 1.74-.06 3.3-.57 4.89-.97.25-.02.43-.15.7-.15.85-.19 1.78-.34 2.69-.36-.4.52-.63 1.09-.8 1.72-.23.52.4.59.59.88-.59.17-1 .57-1.55.8-1.21-.04-2.24.42-3.37.55-.02.25.4.17.43.42-.06.17-.22.19-.36.29-.02.11 0 .13.11.15.11-.13.36-.04.47-.17.38 0 .7-.11 1.06-.13.32-.13.68-.15.97-.38.4-.11.64-.38 1.04-.5.57 0 1.08-.19 1.61-.23v.11l-1.35 2.1c-.08.13.02.27.13.31.27.08.53 0 .74-.11L29 42.98c.13-.65.61-.99 1.08-1.43.08-.04.19-.15.26-.04-.38.44-.63.86-.91 1.33-.15.54-.19 1.22.28 1.66.23.19.57.13.87.15.74-.38 1.69.23 2.25-.5.34-.06.4.34.59.54.32.1.66.42.98.19-.02-.21-.25-.4-.36-.59-.23-.4-.51-.73-.72-1.09-.1-.27-.26-.44-.3-.71.34.11.64.34 1.02.4.32.13.72.11 1.02.31.25.32.63.52.95.73.47.23 1 .27 1.5.46.19.02.47.17.61 0-.08-.1-.17-.15-.28-.21-.06-.25.34-.11.47-.31-.05-.1-.13-.13-.22-.14-.27-.14-.95-.2-1.13-.3-.23-.04-.43-.13-.66-.21-1.14 0-1.76-1.03-2.67-1.41.21-.19.53-.34.66-.63.17-.27.23-.71.06-1.01-.17-.59-.93-.52-1.37-.84l.06-.06c.74-.04 1.39.13 2.04.27 1.82.25 3.51.94 5.4.97 1.04 0 2.35.06 2.86-.96l.3-1.77c.24-.95.87-1.82.77-2.88h0zm-20.47 8.7l-.26-.25c.13-.17.42-.08.63-.19.49-.15 1.06-.34 1.61-.23-.57.46-1.31.52-1.97.67h0zm11.83-.31c.45.21 1.37.41 2.02.48-.06.26-.52.01-.47.38-.59-.23-1.27-.34-1.71-.8.04-.02.08-.08.15-.06h0zm-17.78-8.11c.06-.34.13-.71.45-.96.45-.25 1.08-.19 1.5.06.13.08.23.19.31.36.1.32-.06.67-.29.86h-.19c0-.31 0-.61.11-.86-.02-.23-.21-.25-.36-.34-.32-.1-.61.06-.86.19-.19.23-.36.52-.24.84.13.21.02.5.1.73l-.06.08c-.23-.25-.53-.52-.47-.96h0zm.89.54c.28.21.68.11 1.02.17.06.21.06.48-.1.65-.32-.08-.74-.04-.91-.34.04-.13-.06-.32-.02-.48h0zm-.06-.64c.06-.15 0-.38.21-.42.13-.04.34-.04.36.11-.02.23-.04.46-.1.67-.26.02-.4-.13-.47-.36h0zm8.89 6.13c-.1-.67.17-1.24.61-1.72.26-.06.57-.11.81.04-.49.13-1.12.25-1.23.88.02.25-.06.38.06.59.21.36.68.21.95.5 0 .1-.08.21-.17.23-.32-.2-.71-.27-1.02-.52h0zm-.68 1.31c.45-.19.93-.59 1.44-.42-.36.29-.95.4-1.44.42h0zm1.8.19a15.24 15.24 0 0 1-.93 1.79c-.04.1-.19.11-.3.13 0-.27.26-.48.38-.71.4-.52.51-1.07.97-1.57.11.12-.11.2-.11.35h0zm.47-1.11v.08h-.04v-.1h.08s-.06 0-.08.02h.04zm-.17-.51c-.32-.04-.63-.13-.91-.23-.19-.19 0-.4 0-.61.26-.42 1.02-.63 1.39-.25-.06.42-.21.78-.48 1.09h0zm.42 0c.06-.25.17-.57.3-.8-.01.25-.13.59-.3.8h0zm.21-1.55c-.25-.06-.38-.34-.64-.34.23-.08.45-.06.72-.02.1.13-.06.25-.08.36h0zm.22.57h-.02v-.21h.02v.21h0zm.02.88c-.02-.08.04-.17.06-.27.1-.1.19.08.23.13-.06.1-.17.15-.29.13h0zm.29-1.18c.1-.27.11-.5.29-.71.19 0 .36 0 .51.08.04.38.51.9 0 1.22-.17.08-.42.25-.61.08-.25-.21-.29-.4-.19-.67h0zm1.38-.54c-.04-.17.17-.04.25-.11l.59.04c-.31-.04-.68.67-.84.08h0zm.95.25c-.23.08-.4.34-.63.4.11-.21.4-.42.63-.4h0zm-.8 1.18v.06h-.02v-.06h.02zm.04 1.16s.02.1-.04.13l-.43-.34c.21-.04.36.06.47.21h0zm-.51-.59s.13-.04.17 0h-.17zm-.27-.29c.08-.11.17-.29.3-.29 0 .02.02.04.04.06-.11.1-.21.19-.34.23h0zm-.43-.04h-.08l.11-.11c.06.04-.02.08-.04.11h0zm.06.72c.25-.27.47.15.57.36.29.42 1.02.8.74 1.38-.36.32-.93.02-1.33.27-.21-.02-.57.04-.68-.17.21-.61.4-1.3.7-1.83h0zm-.53.36l.1-.15c-.15.46-.38.94-.63 1.38-.11-.46.36-.82.53-1.22h0zm.84 2.27c-.36.02-.91.23-1.25-.08.02-.15-.15-.23-.13-.38.3-.11.57.25.86-.02.43.02.89-.06 1.33.04.21.06.53-.34.57.06-.15.63-.91.19-1.37.38h0zm1.1-2.75v-.06h.04v.06h-.04zm.11 1.2c.02.19.21.27.1.44-.04-.08-.15-.25-.1-.44h0zm.53 1.15l-.1.04c-.1-.08-.06-.29-.04-.4.11.1.21.23.13.36h0zm.95.46c-.02.06-.11.06-.15.02-.57-.73-.84-1.49-1.19-2.29l.08-.02 1.27 2.29h0zm.7-1.76s-.04.06-.04.08c-.55.02-.91-.31-1.33-.59l-.02-.1c.51.04.93.36 1.39.61h0zm-.5-2.54c.23.06.25.31.27.5-.02.42-.25.78-.64.94-.21.11-.53.15-.74.08.45-.02.95-.19 1.14-.65l-.02-.86h0zm-.42-.08c.1.27.27.52.17.84-.19.36-.57.36-.91.44-.17.02-.31-.04-.43-.13.02-.08-.02-.13-.08-.19.06-.25-.43-.5-.1-.71.3-.29 1.02-.94 1.34-.25h0zm9.63-1.39c-.15.19-.02.5-.21.67 0 .34-.29.52-.53.65-2.25.5-4.47-.27-6.65-.65-3.05-.67-6.61-.86-9.72-.15l-4.28 1.01c-.87.11-1.82.25-2.65-.02-.68-.32-.4-1.2-.61-1.81.04-.48-.13-.86-.15-1.32-.06-.15-.1-.34-.08-.5.28.04.57.25.87.32 1.59.31 3.01-.21 4.49-.48 1.42-.31 2.88-.55 4.38-.67 1.71-.02 3.45-.11 5.08.17.53.02.98.15 1.5.19l3.13.5c.17.06.38.06.57.1 1.71.27 3.62.75 5.25 0 0 .68-.28 1.31-.38 1.98h0zm-.53-2.33c.02.31-.27.23-.42.34h-.45c-.1-.15-.06-.38-.06-.54.3.06.64.06.93.19h0zm-.21-.48c.21-.21-.06-1.41.53-.63 0 .15.02.38-.13.5-.09.08-.24.23-.4.13h0zm1.54-.19c-.17.34-.43.59-.82.65.02-.46.43-.78.29-1.3-.25-.36-.74-.48-1.19-.38-.17.11-.1.31-.15.48l-.08.63c-.38 0-.4-.34-.51-.61.02-.4.19-.8.59-.99.3-.15.8-.13 1.1.04.25.06.53.17.63.4.29.27.21.75.15 1.09h0z"/><path d="M67.29 28.5h178.8" fill="none" stroke="#000" stroke-miterlimit="3.86" stroke-width=".61"/><path d="M67.29 41.63v-.21h.25c.22 0 .39-.03.51-.11.12-.07.21-.16.26-.28.03-.08.05-.32.05-.71v-4.99c0-.39-.02-.63-.06-.73s-.12-.18-.25-.25c-.12-.07-.3-.11-.51-.11h-.25v-.21h3.4c.91 0 1.64.12 2.19.37a3.27 3.27 0 0 1 1.54 1.37c.35.61.53 1.3.53 2.08 0 .54-.09 1.03-.26 1.48s-.39.82-.66 1.11-.59.53-.94.71-.79.32-1.31.41c-.23.04-.59.07-1.07.07h-3.4zm2.9-7.17v5.92c0 .32.01.51.04.58s.08.12.15.16c.1.06.25.09.43.09.62 0 1.1-.21 1.43-.64.45-.57.67-1.47.67-2.68 0-.97-.15-1.75-.46-2.34-.24-.45-.55-.76-.94-.93-.27-.11-.71-.17-1.34-.17zm9.83 4.37h-2.87c.03.69.22 1.24.55 1.65.26.31.57.46.93.46.22 0 .43-.06.61-.19s.38-.35.59-.67l.19.12c-.28.58-.6.99-.94 1.23s-.74.36-1.19.36c-.77 0-1.37-.3-1.76-.9-.32-.48-.48-1.08-.48-1.79 0-.87.23-1.57.71-2.09.47-.52 1.03-.77 1.66-.77.53 0 .99.22 1.38.65s.6 1.07.63 1.93zm-1.38-.38c0-.6-.03-1.01-.1-1.24-.07-.22-.17-.39-.31-.51-.08-.07-.18-.1-.32-.1-.2 0-.35.1-.48.29-.22.33-.33.79-.33 1.37v.2h1.53zm3.94 2.65v1.95c0 .27.02.45.06.55s.11.17.2.21.26.07.53.07v.21h-2.99v-.21c.23 0 .4-.07.52-.2.08-.09.11-.31.11-.66v-5.53c0-.37-.04-.61-.13-.71s-.25-.16-.5-.18v-.21h2.19v.69c.18-.27.37-.46.56-.58a1.57 1.57 0 0 1 .89-.26 1.69 1.69 0 0 1 1.05.36c.31.24.55.58.72 1a3.93 3.93 0 0 1 .25 1.38 4.2 4.2 0 0 1-.25 1.45c-.16.44-.42.77-.74 1a1.8 1.8 0 0 1-1.08.34c-.29 0-.55-.06-.81-.19-.18-.1-.38-.26-.58-.5h0zm0-.57c.32.45.66.68 1.03.68.2 0 .37-.11.5-.32.2-.32.29-.91.29-1.79s-.11-1.52-.32-1.85c-.14-.22-.33-.33-.57-.33-.38 0-.69.27-.93.82v2.79h0zm7.12.33c-.64.56-1.21.85-1.72.85-.3 0-.54-.1-.75-.3-.2-.2-.3-.44-.3-.74 0-.4.17-.76.52-1.08.34-.32 1.09-.75 2.25-1.28v-.53c0-.4-.02-.64-.06-.75s-.12-.19-.24-.27a.69.69 0 0 0-.4-.11c-.24 0-.44.05-.6.16-.1.07-.14.14-.14.23 0 .08.05.18.16.29.14.16.21.32.21.46 0 .18-.07.34-.21.47s-.32.19-.54.19a.87.87 0 0 1-.59-.21c-.16-.14-.24-.31-.24-.5 0-.27.11-.53.32-.77s.51-.43.89-.56.78-.2 1.18-.2c.5 0 .89.11 1.18.32s.48.44.56.69c.05.16.08.52.08 1.08v2.03c0 .24 0 .39.03.45s.05.11.09.14.08.04.13.04c.1 0 .2-.07.3-.21l.17.13c-.19.28-.38.48-.58.6a1.31 1.31 0 0 1-.68.19c-.3 0-.53-.07-.7-.21-.18-.13-.28-.34-.32-.63h0zm0-.41V38.7c-.45.26-.79.55-1.01.85-.14.2-.22.41-.22.61 0 .17.06.32.19.45.1.1.22.15.39.15.19 0 .41-.11.65-.32zm4.91-4.05v1.18c.35-.54.65-.9.91-1.08s.51-.27.75-.27c.21 0 .38.06.5.19a.77.77 0 0 1 .19.54c0 .25-.06.44-.18.58s-.27.21-.44.21a.76.76 0 0 1-.52-.19l-.26-.21c-.04-.02-.08-.03-.13-.03-.11 0-.21.04-.31.12-.15.13-.27.31-.35.54-.12.36-.18.76-.18 1.2v1.52a1.53 1.53 0 0 0 .04.41c.04.1.11.18.2.22.09.05.23.08.44.09v.2h-2.83v-.2c.23-.02.38-.08.46-.19s.12-.39.12-.84v-2.9c0-.3-.01-.49-.04-.57-.04-.11-.09-.18-.16-.23s-.2-.08-.38-.1v-.21h2.14z"/><use xlink:href="#F"/><path d="M103.29 36.4v.69c.29-.32.55-.54.8-.66s.51-.19.8-.19c.33 0 .62.08.85.23s.4.4.53.72c.3-.33.58-.58.86-.73s.56-.22.86-.22c.36 0 .65.08.86.25s.36.38.45.63c.09.26.12.66.12 1.22v2.14c0 .4.04.65.11.75s.22.16.46.19v.2h-2.7v-.2c.21-.02.37-.1.47-.25.07-.1.1-.33.1-.69v-2.25c0-.47-.02-.76-.06-.89s-.1-.22-.18-.28-.18-.09-.28-.09c-.16 0-.32.06-.49.18-.16.12-.33.3-.5.53v2.81c0 .38.03.62.1.71.09.14.25.21.49.23v.2h-2.71v-.2c.14 0 .26-.04.34-.11.09-.07.14-.14.17-.23s.04-.29.04-.6v-2.25c0-.47-.02-.77-.06-.89s-.1-.21-.19-.28-.18-.1-.28-.1a.73.73 0 0 0-.41.12c-.18.11-.36.32-.56.59v2.81c0 .37.04.61.11.73s.22.19.46.21v.2h-2.7v-.2c.22-.02.38-.1.47-.21.06-.08.1-.32.1-.73v-2.96c0-.4-.04-.64-.11-.74s-.22-.16-.46-.19v-.21h2.14zm11.69 2.43h-2.87c.03.69.22 1.24.55 1.65.26.31.57.46.93.46.22 0 .43-.06.61-.19s.38-.35.59-.67l.19.12c-.28.58-.6.99-.94 1.23s-.74.36-1.19.36c-.77 0-1.37-.3-1.76-.9-.32-.48-.48-1.08-.48-1.79 0-.87.23-1.57.71-2.09.47-.52 1.03-.77 1.66-.77.53 0 .99.22 1.38.65.4.43.61 1.07.64 1.93zm-1.38-.38c0-.6-.03-1.01-.1-1.24-.07-.22-.17-.39-.31-.51-.08-.07-.18-.1-.32-.1-.2 0-.35.1-.48.29-.22.33-.33.79-.33 1.37v.2h1.53z"/><use xlink:href="#G"/><use xlink:href="#F" x="24.37"/><path d="M130.71 36.24a2.48 2.48 0 0 1 1.27.35c.39.23.69.57.89 1a3.21 3.21 0 0 1 .31 1.42c0 .74-.19 1.37-.56 1.86-.45.61-1.08.91-1.89.91s-1.39-.28-1.82-.83-.64-1.19-.64-1.92.22-1.4.65-1.96 1.03-.84 1.79-.84zm.02.4c-.19 0-.35.07-.49.21s-.22.43-.27.85-.06 1.01-.06 1.77c0 .4.02.77.08 1.12.04.26.13.47.26.61s.29.21.46.21.31-.05.42-.14c.14-.13.24-.31.29-.53.08-.35.11-1.07.11-2.15 0-.64-.03-1.07-.11-1.31s-.18-.41-.32-.52c-.1-.08-.22-.12-.38-.12h0zm5.42.31v3.64c0 .35.04.57.11.66.12.14.34.2.66.19v.2h-3.09v-.2c.23 0 .4-.03.5-.08s.17-.12.21-.21.06-.28.06-.56v-3.64h-.76v-.55h.76v-.65a1.71 1.71 0 0 1 .59-1.34c.4-.36.93-.54 1.6-.54.46 0 .8.09 1.02.26s.33.36.33.57a.53.53 0 0 1-.21.43c-.14.12-.32.19-.55.19-.2 0-.35-.05-.46-.15s-.17-.21-.17-.33c0-.03 0-.1.03-.21.01-.06.02-.12.02-.18 0-.08-.02-.14-.07-.17-.06-.06-.13-.09-.22-.09-.11 0-.2.04-.27.13s-.11.23-.11.43v1.64h.78v.55h-.77zm6.91 1.03v2.35c0 .39.02.63.06.73s.13.18.25.25.3.11.51.11h.25v.21h-3.97v-.21h.25c.22 0 .4-.04.53-.12.1-.05.17-.14.22-.27.04-.09.06-.32.06-.71v-4.99c0-.39-.02-.63-.06-.73s-.12-.18-.25-.25-.3-.11-.51-.11h-.25v-.21h3.97v.21h-.25c-.22 0-.4.04-.53.12-.1.05-.17.14-.23.27-.04.09-.06.32-.06.71v2.15h2.68v-2.15c0-.39-.02-.63-.06-.73s-.12-.18-.25-.25-.3-.11-.51-.11h-.25v-.21h3.97v.21h-.25c-.22 0-.4.04-.53.12-.1.05-.17.14-.23.27-.04.09-.06.32-.06.71v4.99c0 .39.02.63.06.73s.12.18.25.25.3.11.51.11h.25v.21h-3.97v-.21h.25c.22 0 .4-.04.53-.12.1-.05.17-.14.23-.27.04-.09.06-.32.06-.71v-2.35h-2.68z"/><use xlink:href="#H"/><path d="M156.41 40.86c-.64.56-1.21.85-1.72.85-.3 0-.54-.1-.75-.3-.2-.2-.3-.44-.3-.74 0-.4.17-.76.52-1.08.34-.32 1.09-.75 2.25-1.28v-.53c0-.4-.02-.64-.06-.75s-.12-.19-.24-.27a.69.69 0 0 0-.4-.11c-.24 0-.44.05-.6.16-.1.07-.14.14-.14.23 0 .08.05.18.16.29.14.16.21.32.21.46 0 .18-.07.34-.21.47s-.32.19-.54.19a.87.87 0 0 1-.59-.21c-.16-.14-.24-.31-.24-.5 0-.27.11-.53.32-.77s.51-.43.89-.56a3.61 3.61 0 0 1 1.18-.2c.5 0 .89.11 1.18.32s.48.44.56.69c.05.16.08.52.08 1.08v2.03c0 .24 0 .39.03.45s.05.11.09.14.08.04.13.04c.1 0 .2-.07.3-.21l.17.13c-.19.28-.38.48-.58.6a1.31 1.31 0 0 1-.68.19c-.3 0-.53-.07-.7-.21-.18-.13-.29-.34-.32-.63zm0-.41V38.7c-.45.26-.79.55-1.01.85-.14.2-.22.41-.22.61 0 .17.06.32.19.45.1.1.22.15.39.15.19 0 .4-.11.65-.32h0zm4.78-6.41v6.51c0 .37.04.61.13.71s.25.16.5.18v.2h-2.83v-.2c.23 0 .4-.08.52-.2.08-.09.11-.32.11-.68v-5.42c0-.37-.04-.6-.13-.7s-.25-.16-.5-.18v-.21h2.2z"/><use xlink:href="#F" x="64.79"/><path d="M168.05 34.04v3.03c.29-.3.55-.52.79-.64s.49-.19.75-.19c.33 0 .61.1.84.28a1.29 1.29 0 0 1 .46.66c.07.25.11.68.11 1.28v2.04c0 .4.04.65.11.75s.22.16.45.19v.2h-2.65v-.2c.19-.02.32-.1.42-.22.07-.1.1-.33.1-.71v-2.34c0-.43-.02-.7-.05-.82s-.09-.2-.17-.26a.44.44 0 0 0-.27-.09c-.15 0-.3.05-.43.15-.14.1-.3.28-.46.54v2.8c0 .37.03.61.09.7.07.13.21.21.43.23v.2h-2.65v-.2c.22-.02.38-.1.47-.21.06-.08.1-.32.1-.72v-5.31c0-.4-.04-.64-.11-.74s-.22-.16-.46-.19v-.21h2.14z"/><use xlink:href="#I"/><use xlink:href="#G" x="65.02"/><use xlink:href="#J"/><path d="M199.97 39.47h-2.68l-.32.74c-.11.25-.16.45-.16.61 0 .21.09.37.26.47.1.06.35.11.75.13v.21h-2.53v-.21c.27-.04.5-.15.67-.34s.39-.57.65-1.15l2.71-6.06h.11l2.74 6.22c.26.59.48.96.64 1.11.13.11.31.18.54.2v.21h-3.67v-.21h.15c.3 0 .5-.04.62-.12.08-.06.12-.14.12-.26 0-.07 0-.14-.03-.21 0-.03-.06-.17-.17-.42l-.4-.94zm-.19-.41l-1.13-2.61-1.17 2.61h2.3zm7.33-2.6h1.76v.62h-1c.18.18.31.35.38.5.09.2.13.41.13.63 0 .37-.11.7-.31.97s-.49.49-.85.64-.67.23-.95.23c-.02 0-.25 0-.67-.03-.17 0-.31.06-.42.17s-.17.24-.17.4c0 .13.05.24.15.33s.27.13.5.13h.97c.78 0 1.32.08 1.62.25.42.24.63.61.63 1.1 0 .32-.1.61-.29.86-.2.26-.45.45-.77.57-.48.18-1.04.27-1.66.27a5.73 5.73 0 0 1-1.29-.14c-.39-.09-.66-.22-.84-.38-.17-.16-.25-.33-.25-.51s.06-.32.19-.46.37-.25.72-.34c-.49-.24-.73-.57-.73-1 0-.26.1-.51.3-.75s.51-.45.94-.63c-.5-.18-.86-.43-1.08-.72s-.33-.64-.33-1.04c0-.51.21-.96.63-1.33s.96-.56 1.61-.56c.35 0 .71.08 1.08.22h0zm-1.29 5.95c-.38 0-.63.03-.75.1-.21.11-.32.27-.32.47s.11.36.33.52.64.23 1.24.23c.52 0 .93-.07 1.22-.21s.44-.33.44-.58a.3.3 0 0 0-.09-.23c-.1-.11-.25-.19-.46-.23s-.74-.06-1.62-.06zm.33-5.82c-.21 0-.4.11-.55.33s-.22.67-.22 1.36c0 .55.07.94.22 1.15s.32.31.53.31c.22 0 .41-.1.56-.31s.22-.61.22-1.2c0-.67-.09-1.12-.25-1.37a.57.57 0 0 0-.5-.27h0zm7.65 2.24h-2.87c.03.69.22 1.24.55 1.65.26.31.57.46.93.46.22 0 .43-.06.61-.19s.38-.35.59-.67l.19.12c-.28.58-.6.99-.94 1.23s-.74.36-1.19.36c-.78 0-1.37-.3-1.76-.9-.32-.48-.48-1.08-.48-1.79 0-.87.23-1.57.71-2.09.47-.52 1.03-.77 1.66-.77.53 0 .99.22 1.38.65s.6 1.07.63 1.93h0zm-1.38-.38c0-.6-.03-1.01-.1-1.24-.07-.22-.17-.39-.31-.51-.08-.07-.18-.1-.32-.1-.2 0-.35.1-.48.29-.22.33-.33.79-.33 1.37v.2h1.53z"/><use xlink:href="#J" x="27.77"/><path d="M230.62,33.87v2.63h-.22c-.16-.69-.47-1.21-.92-1.58-.45-.37-.96-.55-1.52-.55-.47,0-.91,.14-1.3,.41s-.68,.63-.87,1.07c-.23,.56-.35,1.19-.35,1.88s.09,1.3,.26,1.85c.17,.56,.44,.98,.81,1.27s.84,.43,1.42,.43c.48,0,.92-.11,1.31-.32s.82-.57,1.26-1.08v.65c-.43,.44-.87,.76-1.33,.97s-1,.3-1.61,.3c-.81,0-1.53-.16-2.16-.49-.63-.32-1.11-.79-1.46-1.4s-.51-1.26-.51-1.94c0-.73,.19-1.41,.57-2.06s.89-1.15,1.53-1.51,1.33-.54,2.05-.54c.54,0,1.1,.11,1.69,.35,.34,.13,.56,.2,.65,.2,.12,0,.22-.04,.31-.13s.14-.22,.17-.42h.22Z"/><use xlink:href="#I" x="56.14"/><path d="M238.86 36.4v1.18c.35-.54.65-.9.91-1.08s.51-.27.75-.27c.21 0 .38.06.5.19a.77.77 0 0 1 .19.54c0 .25-.06.44-.18.58s-.27.21-.44.21a.76.76 0 0 1-.52-.19l-.26-.21c-.04-.02-.08-.03-.13-.03-.11 0-.21.04-.31.12-.15.13-.27.31-.35.54-.12.36-.18.76-.18 1.2v1.52a1.53 1.53 0 0 0 .04.41c.04.1.11.18.2.22.09.05.23.08.44.09v.2h-2.83v-.2c.23-.02.38-.08.46-.19s.12-.39.12-.84v-2.9c0-.3-.01-.49-.04-.57-.04-.11-.09-.18-.16-.23s-.2-.08-.38-.1v-.21h2.15z"/><use xlink:href="#H" x="93.11"/><defs><path id="A" d="M88.98 14.58v2.11h1.37v.61h-1.37v3.55c0 .33.01.55.04.64.03.1.09.17.17.23s.15.09.21.09c.27 0 .52-.21.76-.61l.19.13c-.33.79-.87 1.18-1.62 1.18a1.48 1.48 0 0 1-.93-.3c-.25-.21-.41-.43-.48-.68-.04-.14-.06-.52-.06-1.13v-3.11h-.75v-.21c.52-.36.96-.75 1.32-1.15a7.45 7.45 0 0 0 .96-1.35h.2z"/><path id="B" d="M116.45 16.68v.75c.3-.32.58-.55.85-.7a1.76 1.76 0 0 1 .87-.22 1.4 1.4 0 0 1 .93.32c.25.21.41.46.49.77.07.23.1.68.1 1.35v2.24c0 .44.04.72.12.83s.25.18.51.21v.22h-2.91v-.22c.22-.03.37-.12.47-.27.07-.1.1-.36.1-.76v-2.56c0-.47-.02-.77-.06-.89s-.1-.22-.19-.28c-.09-.07-.18-.11-.29-.11-.35 0-.68.25-.98.76v3.09c0 .43.04.7.12.82.08.11.23.19.45.21v.22h-2.91v-.22c.24-.02.42-.1.52-.23.07-.09.11-.36.11-.8v-3.25c0-.43-.04-.71-.12-.81-.08-.11-.24-.18-.5-.21v-.23h2.34z"/><path id="C" d="M148.79 19.36h-3.16c.04.76.24 1.37.61 1.81.28.34.63.51 1.02.51.25 0 .47-.07.67-.21s.42-.39.64-.75l.21.13c-.31.64-.66 1.09-1.04 1.36-.38.26-.82.39-1.31.4-.86 0-1.5-.33-1.94-.98-.35-.53-.53-1.18-.53-1.97 0-.96.26-1.72.77-2.29.52-.57 1.13-.86 1.83-.86.58 0 1.09.24 1.51.72.43.47.66 1.18.7 2.12h0zm-1.51-.42c0-.66-.04-1.11-.11-1.36s-.18-.43-.33-.56c-.09-.07-.2-.11-.34-.11-.21 0-.39.11-.53.32-.24.37-.36.86-.36 1.5v.21h1.68z"/><path id="D" d="M40.36 22.89c.2 0 .36-.14.36-.32s-.16-.32-.36-.32-.36.14-.36.32.16.32.36.32h0z"/><path id="E" d="M36.41 11.57s-.17.28-.17.33c0 .11.08.19.17.19s.17-.09.17-.19l-.18-.33h0z"/><path id="F" d="M99.49 34.48v1.92h1.24v.55h-1.24v3.23c0 .3.01.5.04.58s.08.16.15.21.14.08.2.08c.24 0 .47-.19.69-.55l.17.12c-.3.72-.79 1.07-1.47 1.07-.33 0-.61-.09-.84-.28s-.38-.39-.44-.62c-.04-.13-.06-.47-.06-1.03v-2.83h-.68v-.2c.47-.33.87-.68 1.2-1.05s.62-.77.86-1.23h.19z"/><path id="G" d="M117.66 36.4v.68c.27-.29.53-.5.77-.64s.51-.2.79-.2c.34 0 .62.1.85.28s.37.42.45.7c.06.21.09.62.09 1.23v2.04c0 .4.04.65.11.75s.22.16.46.19v.2h-2.65v-.2c.2-.02.34-.11.43-.25.06-.1.09-.32.09-.69v-2.33c0-.43-.02-.7-.05-.81s-.09-.2-.17-.26a.44.44 0 0 0-.27-.09c-.32 0-.62.23-.9.69v2.8c0 .39.04.64.11.75s.21.17.41.2v.2h-2.65v-.2c.22-.02.38-.1.47-.21.06-.08.1-.32.1-.73v-2.96c0-.4-.04-.64-.11-.74s-.22-.16-.46-.19v-.21h2.14z"/><path id="H" d="M152.98 38.83h-2.87c.03.69.22 1.24.55 1.65.26.31.57.46.93.46.22 0 .43-.06.61-.19s.38-.35.59-.67l.19.12c-.28.58-.6.99-.94 1.23s-.74.36-1.19.36c-.77 0-1.37-.3-1.76-.9-.32-.48-.48-1.08-.48-1.79 0-.87.23-1.57.71-2.09.47-.52 1.03-.77 1.66-.77.53 0 .99.22 1.38.65s.6 1.07.63 1.93h0zm-1.38-.38c0-.6-.03-1.01-.1-1.24-.07-.22-.17-.39-.31-.51-.08-.07-.18-.1-.32-.1-.2 0-.35.1-.48.29-.22.33-.33.79-.33 1.37v.2h1.53z"/><path id="I" d="M177.81 40.86c-.64.56-1.21.85-1.72.85-.3 0-.54-.1-.75-.3-.2-.2-.3-.44-.3-.74 0-.4.17-.76.52-1.08.34-.32 1.09-.75 2.25-1.28v-.53c0-.4-.02-.64-.06-.75s-.12-.19-.24-.27a.69.69 0 0 0-.4-.11c-.24 0-.44.05-.6.16-.1.07-.14.14-.14.23 0 .08.05.18.16.29.14.16.21.32.21.46 0 .18-.07.34-.21.47s-.32.19-.54.19a.87.87 0 0 1-.59-.21c-.16-.14-.24-.31-.24-.5 0-.27.11-.53.32-.77s.51-.43.89-.56a3.61 3.61 0 0 1 1.18-.2c.5 0 .89.11 1.18.32s.48.44.56.69c.05.16.08.52.08 1.08v2.03c0 .24 0 .39.03.45s.05.11.09.14.08.04.13.04c.1 0 .2-.07.3-.21l.17.13c-.19.28-.38.48-.58.6a1.31 1.31 0 0 1-.68.19c-.3 0-.53-.07-.7-.21-.18-.13-.28-.34-.32-.63zm0-.41V38.7c-.45.26-.79.55-1.01.85-.14.2-.22.41-.22.61 0 .17.06.32.19.45.1.1.22.15.39.15.19 0 .41-.11.65-.32h0z"/><path id="J" d="M191.67 34.04v6.02l.03.72a.47.47 0 0 0 .17.27c.08.06.23.1.44.11v.19l-2.21.43v-.83c-.26.32-.5.54-.71.65a1.48 1.48 0 0 1-.7.17c-.67 0-1.19-.3-1.59-.9-.32-.49-.47-1.08-.47-1.79a3.8 3.8 0 0 1 .29-1.51c.2-.44.46-.78.8-1.01s.7-.34 1.09-.34c.25 0 .47.05.66.14s.4.27.62.51v-1.58c0-.4-.02-.64-.05-.72-.04-.11-.11-.19-.2-.24s-.26-.08-.5-.08v-.23h2.32zm-1.57 3.55c-.28-.53-.62-.79-1.01-.79-.14 0-.25.04-.34.11-.14.11-.25.32-.34.61s-.13.74-.13 1.34c0 .66.05 1.15.14 1.47s.23.54.4.69c.09.07.21.11.35.11.33 0 .64-.26.93-.77v-2.75z"/></defs></svg>